<?xml version="1.0" encoding="UTF-8"?>
<svg xmlns="http://www.w3.org/2000/svg" xmlns:xlink="http://www.w3.org/1999/xlink" width="59px" height="63px" viewBox="0 0 59 54" version="1.1">
<g id="surface1">
<path style=" stroke:none;fill-rule:nonzero;fill:rgb(95.294118%,95.294118%,96.078432%);fill-opacity:1;" d="M 0 0 C 19.46875 0 38.941406 0 59 0 C 59 17.820312 59 35.640625 59 54 C 39.53125 54 20.058594 54 0 54 C 0 36.179688 0 18.359375 0 0 Z M 0 0 "/>
<path style=" stroke:none;fill-rule:nonzero;fill:rgb(4.705882%,4.705882%,4.705882%);fill-opacity:1;" d="M 40.265625 18.347656 C 40.386719 18.347656 40.503906 18.351562 40.625 18.351562 C 40.808594 18.351562 40.808594 18.351562 40.996094 18.351562 C 41.253906 18.351562 41.511719 18.355469 41.769531 18.355469 C 42.164062 18.359375 42.558594 18.359375 42.957031 18.359375 C 43.207031 18.359375 43.457031 18.359375 43.707031 18.363281 C 43.824219 18.363281 43.945312 18.363281 44.066406 18.363281 C 44.902344 18.371094 44.902344 18.371094 45.089844 18.558594 C 45.105469 18.835938 45.109375 19.121094 45.109375 19.398438 C 45.109375 19.582031 45.113281 19.765625 45.113281 19.953125 C 45.113281 20.15625 45.113281 20.359375 45.113281 20.566406 C 45.113281 20.777344 45.113281 20.988281 45.113281 21.207031 C 45.117188 21.789062 45.117188 22.371094 45.117188 22.953125 C 45.117188 23.4375 45.117188 23.921875 45.117188 24.40625 C 45.117188 25.550781 45.121094 26.695312 45.117188 27.835938 C 45.117188 29.019531 45.121094 30.199219 45.125 31.382812 C 45.125 32.394531 45.125 33.40625 45.125 34.417969 C 45.125 35.023438 45.125 35.628906 45.128906 36.234375 C 45.128906 36.910156 45.128906 37.585938 45.128906 38.261719 C 45.128906 38.460938 45.128906 38.664062 45.132812 38.871094 C 45.132812 39.054688 45.128906 39.238281 45.128906 39.425781 C 45.128906 39.585938 45.128906 39.746094 45.128906 39.910156 C 45.089844 40.292969 45.089844 40.292969 44.753906 40.625 C 43.988281 40.691406 43.222656 40.679688 42.453125 40.679688 C 42.074219 40.675781 41.691406 40.679688 41.308594 40.6875 C 41.066406 40.6875 40.824219 40.6875 40.582031 40.6875 C 40.253906 40.6875 40.253906 40.6875 39.914062 40.6875 C 39.742188 40.667969 39.566406 40.648438 39.390625 40.625 C 39.019531 40.070312 39.011719 39.898438 39.011719 39.253906 C 39.011719 39.074219 39.007812 38.894531 39.007812 38.707031 C 39.007812 38.507812 39.011719 38.3125 39.011719 38.109375 C 39.011719 37.898438 39.007812 37.691406 39.007812 37.476562 C 39.007812 36.90625 39.007812 36.335938 39.007812 35.761719 C 39.011719 35.164062 39.007812 34.566406 39.007812 33.972656 C 39.007812 32.96875 39.007812 31.964844 39.011719 30.960938 C 39.011719 29.800781 39.011719 28.640625 39.007812 27.480469 C 39.007812 26.484375 39.007812 25.488281 39.007812 24.492188 C 39.007812 23.898438 39.007812 23.300781 39.007812 22.707031 C 39.007812 22.042969 39.007812 21.382812 39.011719 20.71875 C 39.011719 20.519531 39.007812 20.324219 39.007812 20.117188 C 39.007812 19.9375 39.011719 19.757812 39.011719 19.574219 C 39.011719 19.339844 39.011719 19.339844 39.011719 19.097656 C 39.101562 18.308594 39.585938 18.351562 40.265625 18.347656 Z M 40.265625 18.347656 "/>
<path style=" stroke:none;fill-rule:nonzero;fill:rgb(3.921569%,3.921569%,3.921569%);fill-opacity:1;" d="M 23.152344 22.191406 C 23.269531 22.191406 23.386719 22.191406 23.507812 22.191406 C 23.757812 22.191406 24.007812 22.191406 24.253906 22.191406 C 24.636719 22.195312 25.019531 22.191406 25.402344 22.191406 C 25.644531 22.191406 25.886719 22.191406 26.125 22.191406 C 26.347656 22.191406 26.570312 22.191406 26.796875 22.191406 C 27.320312 22.234375 27.320312 22.234375 27.65625 22.570312 C 27.699219 22.886719 27.699219 22.886719 27.699219 23.28125 C 27.699219 23.429688 27.699219 23.578125 27.703125 23.730469 C 27.699219 23.894531 27.699219 24.058594 27.699219 24.230469 C 27.699219 24.402344 27.699219 24.574219 27.703125 24.75 C 27.703125 25.324219 27.703125 25.894531 27.699219 26.46875 C 27.699219 26.863281 27.703125 27.257812 27.703125 27.65625 C 27.703125 28.484375 27.703125 29.316406 27.699219 30.148438 C 27.699219 31.214844 27.699219 32.28125 27.699219 33.347656 C 27.703125 34.167969 27.703125 34.984375 27.699219 35.804688 C 27.699219 36.195312 27.699219 36.589844 27.703125 36.984375 C 27.703125 37.53125 27.703125 38.082031 27.699219 38.632812 C 27.699219 38.796875 27.699219 38.960938 27.703125 39.128906 C 27.699219 39.351562 27.699219 39.351562 27.699219 39.582031 C 27.699219 39.710938 27.699219 39.839844 27.699219 39.972656 C 27.65625 40.292969 27.65625 40.292969 27.320312 40.625 C 26.554688 40.691406 25.789062 40.679688 25.023438 40.679688 C 24.640625 40.675781 24.257812 40.679688 23.878906 40.6875 C 23.636719 40.6875 23.394531 40.6875 23.152344 40.6875 C 22.820312 40.6875 22.820312 40.6875 22.484375 40.6875 C 22.308594 40.667969 22.136719 40.648438 21.957031 40.625 C 21.609375 40.105469 21.582031 39.992188 21.578125 39.398438 C 21.578125 39.25 21.578125 39.105469 21.578125 38.949219 C 21.578125 38.789062 21.578125 38.628906 21.578125 38.460938 C 21.578125 38.289062 21.578125 38.121094 21.578125 37.941406 C 21.574219 37.378906 21.578125 36.8125 21.578125 36.246094 C 21.578125 35.855469 21.578125 35.460938 21.578125 35.070312 C 21.574219 34.25 21.578125 33.425781 21.578125 32.605469 C 21.582031 31.546875 21.578125 30.492188 21.578125 29.4375 C 21.574219 28.628906 21.578125 27.816406 21.578125 27.007812 C 21.578125 26.621094 21.578125 26.230469 21.578125 25.839844 C 21.574219 25.296875 21.578125 24.753906 21.578125 24.210938 C 21.578125 24.050781 21.578125 23.886719 21.578125 23.71875 C 21.578125 23.5 21.578125 23.5 21.578125 23.273438 C 21.578125 23.144531 21.578125 23.015625 21.578125 22.882812 C 21.695312 22.023438 22.464844 22.191406 23.152344 22.191406 Z M 23.152344 22.191406 "/>
<path style=" stroke:none;fill-rule:nonzero;fill:rgb(4.313726%,4.313726%,4.313726%);fill-opacity:1;" d="M 32.015625 26.6875 C 32.1875 26.6875 32.1875 26.6875 32.359375 26.6875 C 32.601562 26.6875 32.839844 26.691406 33.082031 26.691406 C 33.449219 26.695312 33.816406 26.695312 34.183594 26.695312 C 35.988281 26.703125 35.988281 26.703125 36.371094 27.082031 C 36.40625 27.503906 36.417969 27.90625 36.414062 28.328125 C 36.417969 28.457031 36.417969 28.585938 36.417969 28.71875 C 36.417969 29.144531 36.417969 29.566406 36.417969 29.992188 C 36.417969 30.289062 36.417969 30.582031 36.417969 30.878906 C 36.417969 31.496094 36.417969 32.113281 36.414062 32.734375 C 36.414062 33.527344 36.414062 34.320312 36.417969 35.113281 C 36.417969 35.722656 36.417969 36.332031 36.417969 36.941406 C 36.417969 37.234375 36.417969 37.527344 36.417969 37.820312 C 36.417969 38.230469 36.417969 38.636719 36.414062 39.046875 C 36.417969 39.167969 36.417969 39.289062 36.417969 39.414062 C 36.410156 40.253906 36.410156 40.253906 36.035156 40.625 C 35.273438 40.691406 34.503906 40.679688 33.738281 40.679688 C 33.355469 40.675781 32.976562 40.679688 32.59375 40.6875 C 32.351562 40.6875 32.109375 40.6875 31.867188 40.6875 C 31.535156 40.6875 31.535156 40.6875 31.199219 40.6875 C 31.023438 40.667969 30.851562 40.648438 30.671875 40.625 C 30.269531 40.023438 30.289062 39.589844 30.292969 38.894531 C 30.292969 38.769531 30.289062 38.644531 30.289062 38.515625 C 30.285156 38.101562 30.289062 37.6875 30.289062 37.277344 C 30.285156 36.988281 30.285156 36.703125 30.285156 36.417969 C 30.285156 35.816406 30.285156 35.214844 30.285156 34.613281 C 30.285156 33.84375 30.285156 33.070312 30.28125 32.300781 C 30.277344 31.710938 30.277344 31.117188 30.277344 30.523438 C 30.277344 30.242188 30.277344 29.957031 30.273438 29.671875 C 30.273438 29.277344 30.273438 28.878906 30.277344 28.480469 C 30.273438 28.363281 30.273438 28.246094 30.273438 28.125 C 30.277344 27.648438 30.285156 27.324219 30.558594 26.925781 C 31.027344 26.632812 31.472656 26.6875 32.015625 26.6875 Z M 32.015625 26.6875 "/>
<path style=" stroke:none;fill-rule:nonzero;fill:rgb(3.529412%,3.529412%,3.529412%);fill-opacity:1;" d="M 14.539062 27.023438 C 14.648438 27.023438 14.761719 27.023438 14.871094 27.023438 C 15.105469 27.023438 15.335938 27.023438 15.566406 27.027344 C 15.921875 27.03125 16.277344 27.03125 16.628906 27.03125 C 18.367188 27.035156 18.367188 27.035156 18.941406 27.417969 C 18.988281 27.832031 19.007812 28.203125 19.003906 28.613281 C 19.003906 28.738281 19.003906 28.859375 19.003906 28.988281 C 19.007812 29.394531 19.003906 29.804688 19 30.210938 C 19 30.496094 19 30.777344 19 31.0625 C 19 31.65625 19 32.25 18.996094 32.84375 C 18.992188 33.605469 18.992188 34.367188 18.992188 35.128906 C 18.996094 35.714844 18.992188 36.300781 18.992188 36.886719 C 18.992188 37.167969 18.992188 37.445312 18.992188 37.726562 C 18.992188 38.121094 18.988281 38.511719 18.988281 38.90625 C 18.988281 39.023438 18.988281 39.140625 18.988281 39.257812 C 18.980469 39.863281 18.953125 40.105469 18.605469 40.625 C 18.078125 40.691406 18.078125 40.691406 17.410156 40.691406 C 17.292969 40.691406 17.175781 40.691406 17.054688 40.695312 C 16.804688 40.695312 16.554688 40.691406 16.308594 40.691406 C 15.925781 40.6875 15.542969 40.691406 15.160156 40.695312 C 14.917969 40.695312 14.675781 40.691406 14.4375 40.691406 C 14.214844 40.691406 13.992188 40.691406 13.765625 40.691406 C 13.507812 40.65625 13.507812 40.65625 13.242188 40.625 C 12.824219 40 12.863281 39.671875 12.859375 38.925781 C 12.859375 38.800781 12.859375 38.679688 12.859375 38.554688 C 12.855469 38.152344 12.855469 37.75 12.855469 37.351562 C 12.855469 37.070312 12.855469 36.792969 12.855469 36.511719 C 12.851562 35.925781 12.851562 35.339844 12.851562 34.757812 C 12.855469 34.007812 12.851562 33.253906 12.847656 32.503906 C 12.84375 31.929688 12.84375 31.351562 12.84375 30.773438 C 12.84375 30.5 12.84375 30.222656 12.84375 29.945312 C 12.839844 29.558594 12.84375 29.171875 12.84375 28.785156 C 12.84375 28.566406 12.84375 28.34375 12.84375 28.117188 C 12.90625 27.585938 12.90625 27.585938 13.128906 27.261719 C 13.582031 26.972656 14.007812 27.023438 14.539062 27.023438 Z M 14.539062 27.023438 "/>
<path style=" stroke:none;fill-rule:nonzero;fill:rgb(93.725491%,93.725491%,94.509804%);fill-opacity:1;" d="M 40.394531 19.558594 C 41.5 19.558594 42.605469 19.558594 43.746094 19.558594 C 43.746094 26.070312 43.746094 32.582031 43.746094 39.289062 C 42.640625 39.289062 41.535156 39.289062 40.394531 39.289062 C 40.394531 32.777344 40.394531 26.269531 40.394531 19.558594 Z M 40.394531 19.558594 "/>
<path style=" stroke:none;fill-rule:nonzero;fill:rgb(3.529412%,3.529412%,3.529412%);fill-opacity:1;" d="M 45.589844 6.019531 C 45.644531 6.074219 45.703125 6.128906 45.757812 6.1875 C 45.671875 7.257812 45.488281 8.300781 45.265625 9.351562 C 45.238281 9.492188 45.210938 9.636719 45.179688 9.78125 C 45.152344 9.917969 45.125 10.050781 45.09375 10.191406 C 45.070312 10.3125 45.042969 10.4375 45.015625 10.5625 C 44.921875 10.867188 44.921875 10.867188 44.585938 11.203125 C 43.820312 11.109375 43.820312 11.109375 43.578125 10.867188 C 43.59375 10.585938 43.621094 10.300781 43.652344 10.019531 C 43.671875 9.867188 43.6875 9.714844 43.703125 9.554688 C 43.71875 9.4375 43.734375 9.316406 43.746094 9.195312 C 42.863281 10.136719 41.988281 11.078125 41.179688 12.089844 C 40.367188 13.097656 39.476562 14.03125 38.585938 14.972656 C 38 15.597656 37.433594 16.234375 36.875 16.886719 C 36.714844 17.070312 36.554688 17.257812 36.394531 17.445312 C 36.050781 17.84375 35.703125 18.246094 35.359375 18.648438 C 35.277344 18.742188 35.195312 18.835938 35.109375 18.929688 C 34.855469 19.226562 34.855469 19.226562 34.625 19.566406 C 34.386719 19.886719 34.171875 20.148438 33.859375 20.394531 C 33.304688 20.429688 33.035156 20.382812 32.515625 20.230469 C 32.25 20.152344 32.25 20.152344 31.980469 20.078125 C 31.347656 19.894531 30.722656 19.695312 30.097656 19.496094 C 29.882812 19.429688 29.667969 19.363281 29.453125 19.296875 C 28.578125 19.019531 27.707031 18.742188 26.84375 18.445312 C 26.734375 18.414062 26.628906 18.378906 26.515625 18.34375 C 26.148438 18.222656 26.148438 18.222656 25.804688 18.082031 C 25.390625 17.9375 25.078125 17.871094 24.640625 17.886719 C 24.027344 18.238281 23.585938 18.726562 23.109375 19.238281 C 22.902344 19.453125 22.902344 19.453125 22.691406 19.667969 C 22.25 20.117188 21.816406 20.574219 21.382812 21.035156 C 20.941406 21.488281 20.5 21.941406 20.058594 22.394531 C 19.785156 22.675781 19.511719 22.960938 19.242188 23.246094 C 19.117188 23.375 18.996094 23.5 18.867188 23.632812 C 18.761719 23.746094 18.652344 23.859375 18.542969 23.976562 C 17.960938 24.542969 17.320312 24.4375 16.558594 24.4375 C 16.351562 24.4375 16.351562 24.4375 16.144531 24.4375 C 15.855469 24.4375 15.566406 24.441406 15.277344 24.441406 C 14.835938 24.441406 14.394531 24.441406 13.949219 24.445312 C 13.671875 24.445312 13.390625 24.445312 13.109375 24.445312 C 12.976562 24.449219 12.84375 24.449219 12.707031 24.449219 C 11.769531 24.445312 11.769531 24.445312 11.398438 24.074219 C 11.492188 23.3125 11.492188 23.3125 11.734375 23.070312 C 12.089844 23.128906 12.441406 23.191406 12.796875 23.253906 C 14.585938 23.488281 16.488281 23.636719 18.054688 22.601562 C 19.5625 21.414062 20.851562 19.996094 22.128906 18.570312 C 22.265625 18.417969 22.40625 18.265625 22.546875 18.105469 C 22.808594 17.8125 23.066406 17.515625 23.316406 17.214844 C 24.171875 16.226562 24.171875 16.226562 24.789062 16.175781 C 24.960938 16.246094 25.132812 16.3125 25.308594 16.382812 C 25.5625 16.460938 25.816406 16.539062 26.070312 16.617188 C 26.367188 16.714844 26.660156 16.8125 26.953125 16.914062 C 27.277344 17.019531 27.597656 17.125 27.917969 17.230469 C 28.421875 17.398438 28.925781 17.566406 29.429688 17.734375 C 29.917969 17.894531 30.40625 18.058594 30.894531 18.21875 C 31.042969 18.269531 31.195312 18.320312 31.347656 18.371094 C 31.488281 18.417969 31.632812 18.464844 31.777344 18.511719 C 31.898438 18.554688 32.023438 18.59375 32.148438 18.636719 C 32.566406 18.734375 32.929688 18.753906 33.355469 18.722656 C 33.644531 18.539062 33.644531 18.539062 33.871094 18.257812 C 34.007812 18.113281 34.007812 18.113281 34.144531 17.960938 C 34.234375 17.855469 34.328125 17.746094 34.421875 17.636719 C 34.570312 17.476562 34.570312 17.476562 34.71875 17.308594 C 34.992188 17.003906 35.261719 16.695312 35.535156 16.382812 C 35.644531 16.261719 35.753906 16.140625 35.867188 16.011719 C 36.226562 15.609375 36.574219 15.199219 36.925781 14.789062 C 37.179688 14.492188 37.4375 14.195312 37.691406 13.898438 C 37.777344 13.796875 37.867188 13.695312 37.957031 13.589844 C 38.464844 12.996094 38.980469 12.414062 39.503906 11.839844 C 40.027344 11.265625 40.523438 10.675781 41.011719 10.074219 C 41.554688 9.402344 42.113281 8.785156 42.742188 8.191406 C 42.566406 8.246094 42.390625 8.300781 42.207031 8.359375 C 41.671875 8.5 41.277344 8.574219 40.730469 8.527344 C 40.5625 8.359375 40.5625 8.359375 40.5 7.960938 C 40.5625 7.523438 40.5625 7.523438 40.878906 7.285156 C 41.59375 6.925781 42.324219 6.660156 43.078125 6.394531 C 43.226562 6.339844 43.375 6.285156 43.527344 6.226562 C 43.671875 6.175781 43.816406 6.125 43.96875 6.074219 C 44.164062 6.003906 44.164062 6.003906 44.363281 5.933594 C 44.824219 5.835938 45.140625 5.890625 45.589844 6.019531 Z M 45.589844 6.019531 "/>
<path style=" stroke:none;fill-rule:nonzero;fill:rgb(2.745098%,2.745098%,2.745098%);fill-opacity:1;" d="M 5.457031 41.605469 C 5.625 41.605469 5.792969 41.605469 5.964844 41.605469 C 6.148438 41.605469 6.332031 41.605469 6.523438 41.605469 C 6.71875 41.605469 6.914062 41.605469 7.117188 41.605469 C 7.660156 41.605469 8.203125 41.605469 8.746094 41.605469 C 9.332031 41.605469 9.917969 41.601562 10.503906 41.601562 C 11.648438 41.601562 12.796875 41.601562 13.945312 41.601562 C 14.878906 41.601562 15.808594 41.601562 16.742188 41.597656 C 19.382812 41.597656 22.023438 41.597656 24.664062 41.597656 C 24.808594 41.597656 24.949219 41.597656 25.097656 41.597656 C 25.3125 41.597656 25.3125 41.597656 25.527344 41.597656 C 27.84375 41.597656 30.15625 41.597656 32.46875 41.59375 C 34.839844 41.589844 37.214844 41.589844 39.585938 41.589844 C 40.917969 41.589844 42.253906 41.589844 43.585938 41.589844 C 44.722656 41.585938 45.855469 41.585938 46.992188 41.585938 C 47.570312 41.585938 48.148438 41.585938 48.730469 41.585938 C 49.355469 41.585938 49.984375 41.585938 50.609375 41.585938 C 50.796875 41.585938 50.980469 41.585938 51.171875 41.585938 C 51.421875 41.585938 51.421875 41.585938 51.675781 41.585938 C 51.820312 41.585938 51.964844 41.585938 52.117188 41.585938 C 52.464844 41.628906 52.464844 41.628906 52.796875 41.960938 C 52.707031 42.722656 52.707031 42.722656 52.464844 42.964844 C 52.207031 42.984375 51.953125 42.988281 51.699219 42.988281 C 51.53125 42.988281 51.363281 42.988281 51.191406 42.988281 C 51.007812 42.988281 50.824219 42.988281 50.632812 42.988281 C 50.4375 42.988281 50.242188 42.988281 50.039062 42.988281 C 49.496094 42.992188 48.953125 42.992188 48.410156 42.992188 C 47.824219 42.988281 47.238281 42.992188 46.652344 42.992188 C 45.507812 42.992188 44.359375 42.992188 43.210938 42.992188 C 42.277344 42.992188 41.347656 42.996094 40.414062 42.996094 C 37.773438 42.996094 35.132812 42.996094 32.492188 42.996094 C 32.347656 42.996094 32.207031 42.996094 32.058594 42.996094 C 31.917969 42.996094 31.773438 42.996094 31.628906 42.996094 C 29.3125 42.996094 27 43 24.6875 43 C 22.316406 43.003906 19.941406 43.003906 17.570312 43.003906 C 16.238281 43.003906 14.902344 43.003906 13.570312 43.007812 C 12.433594 43.007812 11.300781 43.007812 10.164062 43.007812 C 9.585938 43.007812 9.007812 43.007812 8.425781 43.007812 C 7.800781 43.007812 7.171875 43.007812 6.546875 43.007812 C 6.359375 43.007812 6.175781 43.007812 5.984375 43.011719 C 5.820312 43.007812 5.652344 43.007812 5.480469 43.007812 C 5.335938 43.007812 5.191406 43.007812 5.039062 43.007812 C 4.691406 42.964844 4.691406 42.964844 4.359375 42.632812 C 4.46875 41.726562 4.570312 41.609375 5.457031 41.605469 Z M 5.457031 41.605469 "/>
<path style=" stroke:none;fill-rule:nonzero;fill:rgb(93.725491%,93.725491%,94.509804%);fill-opacity:1;" d="M 22.964844 23.574219 C 24.070312 23.574219 25.175781 23.574219 26.316406 23.574219 C 26.316406 28.757812 26.316406 33.945312 26.316406 39.289062 C 25.210938 39.289062 24.101562 39.289062 22.964844 39.289062 C 22.964844 34.101562 22.964844 28.914062 22.964844 23.574219 Z M 22.964844 23.574219 "/>
<path style=" stroke:none;fill-rule:nonzero;fill:rgb(93.333334%,93.333334%,94.117647%);fill-opacity:1;" d="M 31.679688 28.085938 C 32.785156 28.085938 33.890625 28.085938 35.03125 28.085938 C 35.03125 31.78125 35.03125 35.480469 35.03125 39.289062 C 33.925781 39.289062 32.820312 39.289062 31.679688 39.289062 C 31.679688 35.589844 31.679688 31.894531 31.679688 28.085938 Z M 31.679688 28.085938 "/>
<path style=" stroke:none;fill-rule:nonzero;fill:rgb(94.509804%,94.509804%,95.294118%);fill-opacity:1;" d="M 14.246094 28.421875 C 15.351562 28.421875 16.460938 28.421875 17.597656 28.421875 C 17.597656 32.007812 17.597656 35.59375 17.597656 39.289062 C 16.492188 39.289062 15.386719 39.289062 14.246094 39.289062 C 14.246094 35.703125 14.246094 32.117188 14.246094 28.421875 Z M 14.246094 28.421875 "/>
</g>
</svg>
