<?xml version="1.0" encoding="UTF-8"?>
<svg xmlns="http://www.w3.org/2000/svg" xmlns:xlink="http://www.w3.org/1999/xlink" width="59px" height="63px" viewBox="0 0 59 56" version="1.1">
<g id="surface1">
<path style=" stroke:none;fill-rule:nonzero;fill:rgb(95.294118%,95.294118%,96.078432%);fill-opacity:1;" d="M 0 0 C 19.46875 0 38.941406 0 59 0 C 59 18.480469 59 36.960938 59 56 C 39.53125 56 20.058594 56 0 56 C 0 37.519531 0 19.039062 0 0 Z M 0 0 "/>
<path style=" stroke:none;fill-rule:nonzero;fill:rgb(94.509804%,94.509804%,95.294118%);fill-opacity:1;" d="M 27.507812 34.554688 C 27.738281 34.636719 27.96875 34.714844 28.203125 34.796875 C 28.5625 34.921875 28.921875 35.046875 29.285156 35.171875 C 30.15625 35.476562 31.03125 35.765625 31.910156 36.042969 C 32.15625 36.121094 32.402344 36.203125 32.648438 36.28125 C 33.003906 36.394531 33.359375 36.507812 33.714844 36.617188 C 34.042969 36.722656 34.371094 36.828125 34.699219 36.933594 C 34.886719 36.992188 35.074219 37.054688 35.265625 37.113281 C 35.8125 37.355469 36.117188 37.625 36.503906 38.074219 C 36.671875 38.519531 36.695312 38.933594 36.652344 39.40625 C 36.414062 39.890625 36.210938 40.183594 35.777344 40.5 C 34.964844 40.738281 34.273438 40.53125 33.496094 40.269531 C 33.394531 40.234375 33.296875 40.203125 33.191406 40.167969 C 32.878906 40.0625 32.5625 39.957031 32.246094 39.851562 C 31.929688 39.746094 31.617188 39.640625 31.300781 39.535156 C 31.011719 39.441406 30.726562 39.34375 30.441406 39.246094 C 29.996094 39.125 29.660156 39.082031 29.203125 39.109375 C 29.203125 39.355469 29.203125 39.601562 29.203125 39.851562 C 29.871094 40.085938 30.542969 40.320312 31.210938 40.546875 C 31.441406 40.625 31.667969 40.707031 31.894531 40.785156 C 33.96875 41.570312 33.96875 41.570312 36.109375 41.347656 C 36.710938 41.042969 37 40.699219 37.292969 40.101562 C 37.992188 38.726562 39.675781 37.996094 40.964844 37.230469 C 41.558594 36.875 42.140625 36.511719 42.714844 36.125 C 42.828125 36.050781 42.9375 35.976562 43.054688 35.898438 C 43.269531 35.753906 43.480469 35.609375 43.691406 35.460938 C 44.34375 35.023438 44.777344 34.867188 45.589844 34.964844 C 46 35.15625 46 35.15625 46.335938 35.40625 C 46.421875 35.464844 46.507812 35.523438 46.597656 35.582031 C 46.902344 36.023438 46.996094 36.515625 46.933594 37.035156 C 46.476562 37.988281 45.664062 38.417969 44.789062 38.964844 C 44.636719 39.058594 44.484375 39.15625 44.328125 39.253906 C 44.011719 39.457031 43.695312 39.65625 43.375 39.855469 C 42.941406 40.128906 42.503906 40.40625 42.070312 40.679688 C 41.53125 41.023438 40.992188 41.363281 40.453125 41.703125 C 39.878906 42.066406 39.304688 42.429688 38.734375 42.796875 C 38.585938 42.890625 38.4375 42.984375 38.285156 43.082031 C 38.003906 43.261719 37.722656 43.445312 37.445312 43.625 C 36.140625 44.457031 34.960938 45.058594 33.375 44.890625 C 32.632812 44.699219 31.914062 44.449219 31.195312 44.195312 C 30.996094 44.125 30.792969 44.058594 30.59375 43.988281 C 30.203125 43.855469 29.816406 43.722656 29.425781 43.585938 C 28.792969 43.371094 28.15625 43.167969 27.515625 42.972656 C 26.933594 42.796875 26.359375 42.609375 25.785156 42.40625 C 25.582031 42.34375 25.382812 42.28125 25.179688 42.222656 C 25.074219 42.191406 24.96875 42.160156 24.859375 42.125 C 24.273438 42 23.953125 42.015625 23.410156 42.292969 C 23.125 42.476562 22.84375 42.667969 22.570312 42.863281 C 22.222656 43.09375 22 43.175781 21.605469 43.257812 C 21.503906 43.09375 21.402344 42.925781 21.296875 42.753906 C 20.605469 41.617188 19.910156 40.492188 19.164062 39.390625 C 19.101562 39.296875 19.039062 39.207031 18.976562 39.113281 C 18.722656 38.734375 18.46875 38.359375 18.210938 37.984375 C 18.039062 37.726562 17.882812 37.457031 17.730469 37.183594 C 17.929688 36.585938 18.195312 36.511719 18.738281 36.199219 C 18.824219 36.148438 18.910156 36.097656 19 36.046875 C 19.277344 35.882812 19.554688 35.726562 19.835938 35.566406 C 20.109375 35.40625 20.382812 35.246094 20.65625 35.085938 C 20.921875 34.933594 21.183594 34.785156 21.449219 34.632812 C 21.882812 34.390625 21.882812 34.390625 22.191406 34.164062 C 23.742188 33.0625 25.914062 33.984375 27.507812 34.554688 Z M 27.507812 34.554688 "/>
<path style=" stroke:none;fill-rule:nonzero;fill:rgb(93.333334%,93.333334%,94.117647%);fill-opacity:1;" d="M 21.304688 18.371094 C 21.453125 18.519531 21.453125 18.519531 21.464844 18.972656 C 21.460938 19.117188 21.457031 19.257812 21.453125 19.40625 C 22.023438 19.367188 22.023438 19.367188 22.496094 19.109375 C 22.996094 19.042969 23.191406 19.078125 23.609375 19.367188 C 23.988281 19.722656 24.363281 20.078125 24.730469 20.445312 C 24.832031 20.542969 24.929688 20.636719 25.03125 20.738281 C 25.625 21.363281 25.625 21.363281 25.625 21.859375 C 25.578125 21.980469 25.527344 22.097656 25.476562 22.222656 C 25.425781 22.382812 25.371094 22.546875 25.320312 22.714844 C 25.25 22.910156 25.25 22.910156 25.179688 23.109375 C 25.34375 23.125 25.511719 23.140625 25.683594 23.15625 C 25.859375 23.191406 26.039062 23.226562 26.222656 23.257812 C 26.882812 24.246094 26.78125 25.617188 26.574219 26.75 C 26.371094 27.257812 26.371094 27.257812 25.925781 27.480469 C 25.476562 27.554688 25.476562 27.554688 25.179688 27.554688 C 25.257812 27.710938 25.332031 27.867188 25.410156 28.027344 C 25.652344 28.515625 25.648438 28.816406 25.476562 29.332031 C 24.835938 30.210938 24.050781 31.027344 23.09375 31.554688 C 22.710938 31.535156 22.710938 31.535156 22.347656 31.40625 C 22.050781 31.355469 21.753906 31.308594 21.453125 31.257812 C 21.40625 31.601562 21.355469 31.945312 21.304688 32.296875 C 20.082031 32.75 18.640625 32.8125 17.433594 32.296875 C 17.132812 31.851562 17.132812 31.851562 17.132812 31.257812 C 16.5 31.355469 16.5 31.355469 15.886719 31.546875 C 15.203125 31.5625 14.789062 31.105469 14.304688 30.667969 C 13.023438 29.410156 13.023438 29.410156 12.960938 28.59375 C 13.066406 28.214844 13.234375 27.910156 13.410156 27.554688 C 13.269531 27.535156 13.125 27.511719 12.980469 27.492188 C 12.515625 27.40625 12.515625 27.40625 12.21875 27.257812 C 12.070312 26.839844 12.050781 26.449219 12.046875 26.007812 C 12.046875 25.886719 12.046875 25.761719 12.046875 25.636719 C 12.046875 25.507812 12.050781 25.382812 12.050781 25.25 C 12.050781 25.121094 12.046875 24.996094 12.046875 24.863281 C 12.046875 24.738281 12.046875 24.617188 12.046875 24.488281 C 12.046875 24.378906 12.046875 24.265625 12.050781 24.152344 C 12.066406 23.851562 12.066406 23.851562 12.21875 23.40625 C 12.648438 23.191406 12.921875 23.109375 13.410156 23.109375 C 13.359375 22.984375 13.3125 22.855469 13.261719 22.722656 C 13.105469 22.207031 13.054688 21.867188 13.109375 21.332031 C 13.707031 20.441406 14.554688 19.632812 15.496094 19.109375 C 15.886719 19.128906 15.886719 19.128906 16.238281 19.257812 C 16.378906 19.285156 16.515625 19.3125 16.660156 19.34375 C 16.765625 19.363281 16.875 19.386719 16.984375 19.40625 C 17.015625 19.242188 17.046875 19.078125 17.078125 18.90625 C 17.28125 18.371094 17.28125 18.371094 17.679688 18.191406 C 18.851562 17.914062 20.175781 17.925781 21.304688 18.371094 Z M 21.304688 18.371094 "/>
<path style=" stroke:none;fill-rule:nonzero;fill:rgb(3.529412%,3.529412%,3.529412%);fill-opacity:1;" d="M 26.667969 33.148438 C 26.832031 33.199219 26.996094 33.25 27.164062 33.304688 C 28.078125 33.59375 28.980469 33.910156 29.882812 34.242188 C 30.355469 34.410156 30.832031 34.546875 31.316406 34.675781 C 31.953125 34.851562 32.566406 35.039062 33.175781 35.285156 C 33.578125 35.425781 33.984375 35.539062 34.394531 35.65625 C 35.691406 36.03125 36.777344 36.457031 37.546875 37.628906 C 37.546875 37.777344 37.546875 37.921875 37.546875 38.074219 C 38.082031 37.742188 38.621094 37.40625 39.15625 37.074219 C 39.316406 36.972656 39.476562 36.875 39.644531 36.769531 C 40.421875 36.289062 41.199219 35.804688 41.972656 35.3125 C 42.101562 35.230469 42.230469 35.152344 42.363281 35.066406 C 42.605469 34.914062 42.847656 34.761719 43.085938 34.605469 C 43.25 34.503906 43.25 34.503906 43.414062 34.398438 C 43.554688 34.308594 43.554688 34.308594 43.699219 34.21875 C 44.386719 33.824219 45.117188 33.84375 45.890625 33.925781 C 46.8125 34.214844 47.351562 34.703125 47.839844 35.535156 C 48.148438 36.253906 48.054688 37.074219 47.824219 37.804688 C 47.019531 38.933594 45.792969 39.640625 44.632812 40.359375 C 44.382812 40.515625 44.136719 40.671875 43.890625 40.828125 C 43.632812 40.988281 43.378906 41.148438 43.121094 41.308594 C 42.464844 41.722656 41.808594 42.140625 41.15625 42.558594 C 40.542969 42.953125 39.929688 43.339844 39.3125 43.730469 C 39.035156 43.90625 38.757812 44.082031 38.480469 44.257812 C 38.117188 44.488281 37.753906 44.714844 37.386719 44.945312 C 37.285156 45.011719 37.179688 45.078125 37.074219 45.144531 C 35.867188 45.886719 34.628906 46.066406 33.226562 45.925781 C 32.867188 45.832031 32.515625 45.726562 32.164062 45.613281 C 32.0625 45.582031 31.960938 45.546875 31.855469 45.515625 C 31.519531 45.40625 31.179688 45.296875 30.839844 45.183594 C 30.59375 45.105469 30.347656 45.027344 30.097656 44.945312 C 29.179688 44.648438 28.261719 44.351562 27.339844 44.050781 C 26.949219 43.925781 26.554688 43.796875 26.160156 43.667969 C 26.039062 43.628906 25.917969 43.589844 25.796875 43.550781 C 25.683594 43.515625 25.574219 43.476562 25.457031 43.441406 C 25.3125 43.394531 25.3125 43.394531 25.164062 43.34375 C 25.070312 43.316406 24.976562 43.289062 24.882812 43.257812 C 24.78125 43.226562 24.679688 43.195312 24.574219 43.160156 C 24.082031 43.078125 23.765625 43.367188 23.355469 43.621094 C 23.195312 43.71875 23.03125 43.816406 22.867188 43.917969 C 22.746094 43.992188 22.625 44.070312 22.496094 44.148438 C 22.664062 44.488281 22.828125 44.789062 23.046875 45.101562 C 23.242188 45.480469 23.242188 45.480469 23.230469 45.839844 C 23.042969 46.363281 22.789062 46.492188 22.316406 46.78125 C 22.15625 46.882812 21.996094 46.984375 21.828125 47.085938 C 21.65625 47.191406 21.484375 47.292969 21.316406 47.398438 C 21.066406 47.550781 21.066406 47.550781 20.816406 47.707031 C 20.492188 47.910156 20.164062 48.109375 19.835938 48.308594 C 19.535156 48.492188 19.234375 48.679688 18.941406 48.871094 C 18.8125 48.953125 18.683594 49.035156 18.546875 49.121094 C 18.378906 49.230469 18.378906 49.230469 18.210938 49.34375 C 17.792969 49.515625 17.558594 49.457031 17.132812 49.332031 C 17.074219 49.007812 17.074219 49.007812 17.132812 48.59375 C 17.457031 48.320312 17.746094 48.113281 18.101562 47.898438 C 18.199219 47.835938 18.300781 47.773438 18.402344 47.707031 C 18.722656 47.507812 19.046875 47.308594 19.367188 47.109375 C 19.59375 46.96875 19.820312 46.828125 20.046875 46.6875 C 20.613281 46.332031 21.183594 45.980469 21.753906 45.628906 C 21.160156 44.511719 20.519531 43.449219 19.816406 42.398438 C 19.617188 42.101562 19.421875 41.804688 19.226562 41.507812 C 19.078125 41.28125 19.078125 41.28125 18.925781 41.050781 C 18.347656 40.167969 17.78125 39.277344 17.21875 38.382812 C 17.136719 38.257812 17.058594 38.128906 16.972656 38 C 16.902344 37.886719 16.832031 37.777344 16.761719 37.664062 C 16.507812 37.289062 16.230469 36.941406 15.941406 36.59375 C 15.84375 36.65625 15.746094 36.722656 15.644531 36.789062 C 15.195312 37.082031 14.742188 37.375 14.292969 37.667969 C 14.0625 37.816406 14.0625 37.816406 13.824219 37.972656 C 11.480469 39.5 11.480469 39.5 10.726562 39.40625 C 10.679688 39.164062 10.628906 38.917969 10.578125 38.667969 C 11.238281 38.109375 11.949219 37.664062 12.683594 37.214844 C 12.9375 37.054688 13.191406 36.898438 13.445312 36.738281 C 13.566406 36.664062 13.6875 36.589844 13.8125 36.511719 C 14.105469 36.328125 14.390625 36.140625 14.679688 35.949219 C 14.820312 35.855469 14.960938 35.761719 15.105469 35.667969 C 15.222656 35.585938 15.339844 35.507812 15.460938 35.421875 C 15.851562 35.230469 16.105469 35.210938 16.539062 35.257812 C 16.808594 35.464844 16.808594 35.464844 16.984375 35.703125 C 16.984375 35.800781 16.984375 35.898438 16.984375 36 C 17.074219 35.949219 17.160156 35.894531 17.253906 35.84375 C 20.222656 34.089844 20.222656 34.089844 21.464844 33.378906 C 21.621094 33.289062 21.773438 33.203125 21.933594 33.109375 C 23.566406 32.242188 24.976562 32.589844 26.667969 33.148438 Z M 20.5625 35.109375 C 20.300781 35.273438 20.039062 35.433594 19.78125 35.59375 C 19.09375 36.023438 18.410156 36.453125 17.730469 36.890625 C 17.929688 37.429688 18.175781 37.886719 18.488281 38.371094 C 18.582031 38.511719 18.675781 38.652344 18.769531 38.800781 C 18.871094 38.953125 18.96875 39.101562 19.070312 39.257812 C 19.277344 39.578125 19.484375 39.898438 19.6875 40.21875 C 20.085938 40.832031 20.085938 40.832031 20.480469 41.449219 C 20.640625 41.691406 20.796875 41.9375 20.957031 42.179688 C 21.046875 42.324219 21.140625 42.46875 21.234375 42.613281 C 21.453125 42.964844 21.453125 42.964844 21.605469 43.257812 C 22.3125 43.144531 22.804688 42.699219 23.371094 42.28125 C 24.429688 41.8125 25.625 42.320312 26.679688 42.648438 C 26.804688 42.6875 26.929688 42.722656 27.0625 42.761719 C 27.71875 42.964844 28.367188 43.183594 29.011719 43.429688 C 29.785156 43.71875 30.5625 43.984375 31.34375 44.25 C 31.519531 44.3125 31.691406 44.375 31.871094 44.4375 C 33.226562 44.898438 34.410156 45.167969 35.765625 44.589844 C 36.300781 44.324219 36.808594 44.019531 37.3125 43.703125 C 37.429688 43.632812 37.546875 43.558594 37.664062 43.484375 C 38.648438 42.878906 39.621094 42.253906 40.589844 41.625 C 41.230469 41.207031 41.878906 40.800781 42.523438 40.390625 C 43.078125 40.042969 43.632812 39.691406 44.183594 39.339844 C 44.5 39.140625 44.816406 38.945312 45.132812 38.746094 C 45.289062 38.648438 45.449219 38.546875 45.609375 38.445312 C 45.738281 38.363281 45.867188 38.28125 46 38.199219 C 46.488281 37.800781 46.882812 37.351562 46.984375 36.71875 C 46.871094 35.96875 46.65625 35.59375 46.039062 35.109375 C 45.382812 34.894531 44.855469 34.816406 44.210938 35.125 C 43.8125 35.363281 43.429688 35.613281 43.046875 35.871094 C 42.757812 36.058594 42.46875 36.25 42.179688 36.4375 C 42.03125 36.539062 41.882812 36.636719 41.726562 36.738281 C 40.839844 37.320312 39.933594 37.878906 39.03125 38.441406 C 38.902344 38.519531 38.773438 38.601562 38.636719 38.6875 C 38.523438 38.757812 38.410156 38.828125 38.292969 38.902344 C 37.785156 39.257812 37.523438 39.5625 37.292969 40.128906 C 36.9375 40.847656 36.5 41.191406 35.757812 41.480469 C 34.285156 41.734375 32.917969 41.144531 31.558594 40.667969 C 31.328125 40.589844 31.097656 40.507812 30.871094 40.429688 C 30.3125 40.242188 29.757812 40.046875 29.203125 39.851562 C 29.203125 39.605469 29.203125 39.363281 29.203125 39.109375 C 30.183594 39.195312 31.039062 39.445312 31.96875 39.769531 C 33.890625 40.566406 33.890625 40.566406 35.859375 40.417969 C 36.273438 40.09375 36.457031 39.898438 36.652344 39.40625 C 36.695312 38.714844 36.652344 38.25 36.191406 37.707031 C 35.710938 37.292969 35.265625 37.105469 34.667969 36.925781 C 34.5625 36.890625 34.457031 36.855469 34.347656 36.820312 C 34 36.707031 33.65625 36.597656 33.308594 36.492188 C 33.070312 36.414062 32.828125 36.335938 32.589844 36.257812 C 32.097656 36.101562 31.605469 35.941406 31.117188 35.785156 C 30.128906 35.472656 29.148438 35.144531 28.167969 34.816406 C 27.710938 34.667969 27.257812 34.515625 26.800781 34.363281 C 26.351562 34.214844 25.898438 34.066406 25.453125 33.914062 C 23.496094 33.285156 22.144531 34.09375 20.5625 35.109375 Z M 20.5625 35.109375 "/>
<path style=" stroke:none;fill-rule:nonzero;fill:rgb(3.137255%,3.137255%,3.137255%);fill-opacity:1;" d="M 20.546875 10.347656 C 20.65625 10.347656 20.761719 10.347656 20.875 10.347656 C 21.234375 10.347656 21.597656 10.347656 21.957031 10.347656 C 22.214844 10.347656 22.476562 10.34375 22.734375 10.34375 C 23.4375 10.34375 24.140625 10.339844 24.84375 10.339844 C 25.28125 10.339844 25.722656 10.339844 26.160156 10.339844 C 27.535156 10.335938 28.910156 10.335938 30.285156 10.335938 C 31.871094 10.335938 33.457031 10.332031 35.042969 10.328125 C 36.269531 10.324219 37.496094 10.324219 38.722656 10.324219 C 39.453125 10.324219 40.1875 10.320312 40.917969 10.320312 C 41.609375 10.316406 42.296875 10.316406 42.988281 10.316406 C 43.238281 10.316406 43.492188 10.316406 43.746094 10.316406 C 44.089844 10.3125 44.4375 10.3125 44.78125 10.316406 C 44.976562 10.316406 45.167969 10.316406 45.367188 10.316406 C 46.132812 10.394531 46.613281 10.628906 47.128906 11.195312 C 47.460938 11.675781 47.546875 11.917969 47.550781 12.496094 C 47.550781 12.695312 47.550781 12.695312 47.554688 12.902344 C 47.554688 13.050781 47.554688 13.199219 47.554688 13.355469 C 47.554688 13.511719 47.554688 13.664062 47.558594 13.828125 C 47.558594 14.34375 47.5625 14.863281 47.5625 15.382812 C 47.5625 15.558594 47.566406 15.734375 47.566406 15.917969 C 47.566406 16.851562 47.570312 17.789062 47.570312 18.726562 C 47.574219 19.691406 47.578125 20.660156 47.585938 21.625 C 47.589844 22.367188 47.589844 23.113281 47.589844 23.855469 C 47.589844 24.210938 47.59375 24.566406 47.59375 24.925781 C 47.597656 25.421875 47.597656 25.921875 47.597656 26.421875 C 47.601562 26.640625 47.601562 26.640625 47.605469 26.867188 C 47.597656 27.898438 47.398438 28.367188 46.710938 29.136719 C 45.726562 29.867188 44.511719 29.671875 43.347656 29.636719 C 41.027344 29.507812 41.027344 29.507812 38.996094 30.421875 C 38.625 30.828125 38.308594 31.25 37.992188 31.703125 C 37.664062 32.015625 37.664062 32.015625 37.359375 32.257812 C 37.035156 32.53125 36.726562 32.808594 36.425781 33.105469 C 36.292969 33.230469 36.164062 33.351562 36.027344 33.480469 C 35.847656 33.65625 35.847656 33.65625 35.667969 33.832031 C 35.3125 34.074219 35.3125 34.074219 34.902344 34.054688 C 34.566406 33.925781 34.566406 33.925781 34.417969 33.628906 C 34.402344 33.328125 34.402344 33.027344 34.402344 32.726562 C 34.402344 32.457031 34.402344 32.457031 34.402344 32.183594 C 34.40625 31.898438 34.40625 31.898438 34.40625 31.609375 C 34.40625 31.421875 34.410156 31.230469 34.410156 31.035156 C 34.410156 30.566406 34.414062 30.097656 34.417969 29.628906 C 34.328125 29.628906 34.234375 29.632812 34.140625 29.632812 C 33.203125 29.640625 32.261719 29.648438 31.320312 29.652344 C 30.972656 29.65625 30.621094 29.660156 30.269531 29.664062 C 29.765625 29.667969 29.261719 29.671875 28.757812 29.671875 C 28.519531 29.675781 28.519531 29.675781 28.28125 29.679688 C 28.0625 29.679688 28.0625 29.679688 27.835938 29.679688 C 27.707031 29.679688 27.578125 29.683594 27.445312 29.683594 C 27.042969 29.617188 26.90625 29.507812 26.667969 29.183594 C 26.707031 28.867188 26.738281 28.671875 26.96875 28.445312 C 27.222656 28.429688 27.476562 28.425781 27.730469 28.421875 C 27.972656 28.421875 27.972656 28.421875 28.222656 28.421875 C 28.488281 28.417969 28.488281 28.417969 28.757812 28.417969 C 28.9375 28.417969 29.121094 28.417969 29.304688 28.417969 C 29.6875 28.417969 30.070312 28.417969 30.453125 28.417969 C 31.042969 28.417969 31.628906 28.414062 32.214844 28.410156 C 32.589844 28.410156 32.960938 28.410156 33.332031 28.410156 C 33.507812 28.410156 33.683594 28.40625 33.867188 28.40625 C 34.109375 28.40625 34.109375 28.40625 34.359375 28.410156 C 34.503906 28.410156 34.648438 28.40625 34.796875 28.40625 C 35.160156 28.445312 35.160156 28.445312 35.609375 28.742188 C 35.671875 29.074219 35.671875 29.074219 35.683594 29.484375 C 35.691406 29.628906 35.695312 29.773438 35.699219 29.925781 C 35.703125 30.078125 35.707031 30.230469 35.710938 30.390625 C 35.714844 30.542969 35.722656 30.695312 35.726562 30.855469 C 35.738281 31.238281 35.75 31.617188 35.757812 32 C 35.882812 31.882812 36.007812 31.765625 36.140625 31.648438 C 37.976562 29.953125 37.976562 29.953125 38.886719 29.183594 C 39.011719 29.058594 39.136719 28.933594 39.265625 28.804688 C 39.855469 28.320312 40.410156 28.347656 41.148438 28.359375 C 41.28125 28.359375 41.410156 28.359375 41.542969 28.359375 C 41.953125 28.355469 42.367188 28.359375 42.777344 28.359375 C 43.191406 28.363281 43.605469 28.363281 44.019531 28.363281 C 44.273438 28.359375 44.53125 28.363281 44.785156 28.367188 C 44.902344 28.367188 45.019531 28.367188 45.140625 28.367188 C 45.292969 28.367188 45.292969 28.367188 45.449219 28.367188 C 45.914062 28.253906 46.0625 28.097656 46.335938 27.703125 C 46.425781 27.214844 46.417969 26.730469 46.414062 26.234375 C 46.417969 26.085938 46.417969 25.933594 46.417969 25.78125 C 46.421875 25.289062 46.421875 24.796875 46.421875 24.300781 C 46.421875 23.957031 46.421875 23.617188 46.421875 23.273438 C 46.425781 22.554688 46.425781 21.835938 46.421875 21.117188 C 46.417969 20.195312 46.421875 19.273438 46.429688 18.351562 C 46.429688 17.644531 46.429688 16.9375 46.429688 16.230469 C 46.429688 15.890625 46.429688 15.550781 46.433594 15.210938 C 46.433594 14.734375 46.433594 14.261719 46.429688 13.785156 C 46.429688 13.644531 46.433594 13.503906 46.433594 13.359375 C 46.433594 13.230469 46.429688 13.101562 46.429688 12.964844 C 46.429688 12.855469 46.429688 12.742188 46.429688 12.625 C 46.28125 12.105469 46.015625 11.882812 45.589844 11.554688 C 45.089844 11.445312 45.089844 11.445312 44.527344 11.460938 C 44.421875 11.460938 44.316406 11.460938 44.207031 11.460938 C 43.855469 11.457031 43.503906 11.460938 43.148438 11.460938 C 42.898438 11.460938 42.644531 11.460938 42.390625 11.457031 C 41.703125 11.457031 41.015625 11.457031 40.332031 11.460938 C 39.613281 11.464844 38.894531 11.460938 38.175781 11.460938 C 36.96875 11.460938 35.761719 11.464844 34.554688 11.46875 C 33.160156 11.472656 31.765625 11.472656 30.367188 11.46875 C 29.027344 11.46875 27.683594 11.46875 26.34375 11.46875 C 25.773438 11.472656 25.199219 11.472656 24.628906 11.46875 C 23.957031 11.46875 23.285156 11.472656 22.613281 11.476562 C 22.363281 11.476562 22.117188 11.476562 21.871094 11.476562 C 21.535156 11.472656 21.199219 11.476562 20.859375 11.480469 C 20.578125 11.480469 20.578125 11.480469 20.289062 11.480469 C 19.730469 11.570312 19.550781 11.699219 19.21875 12.148438 C 19.128906 12.660156 19.128906 12.660156 19.140625 13.234375 C 19.136719 13.335938 19.136719 13.441406 19.132812 13.546875 C 19.128906 13.875 19.128906 14.207031 19.125 14.535156 C 19.125 14.867188 19.121094 15.199219 19.117188 15.53125 C 19.113281 15.832031 19.109375 16.128906 19.109375 16.429688 C 19.070312 16.890625 19.070312 16.890625 18.773438 17.183594 C 18.09375 17.101562 18.09375 17.101562 17.878906 16.890625 C 17.859375 16.535156 17.847656 16.1875 17.84375 15.835938 C 17.84375 15.730469 17.839844 15.625 17.839844 15.515625 C 17.835938 15.289062 17.835938 15.0625 17.835938 14.835938 C 17.832031 14.496094 17.824219 14.152344 17.820312 13.808594 C 17.816406 13.589844 17.816406 13.371094 17.816406 13.152344 C 17.8125 13.050781 17.808594 12.949219 17.808594 12.84375 C 17.8125 12.097656 18.011719 11.6875 18.476562 11.109375 C 19.210938 10.46875 19.574219 10.351562 20.546875 10.347656 Z M 20.546875 10.347656 "/>
<path style=" stroke:none;fill-rule:nonzero;fill:rgb(3.921569%,3.921569%,3.921569%);fill-opacity:1;" d="M 21.304688 18.371094 C 21.453125 18.519531 21.453125 18.519531 21.464844 18.972656 C 21.460938 19.117188 21.457031 19.257812 21.453125 19.40625 C 22.023438 19.367188 22.023438 19.367188 22.496094 19.109375 C 22.996094 19.042969 23.191406 19.078125 23.609375 19.367188 C 23.988281 19.722656 24.363281 20.078125 24.730469 20.445312 C 24.832031 20.542969 24.929688 20.636719 25.03125 20.738281 C 25.625 21.363281 25.625 21.363281 25.625 21.859375 C 25.578125 21.980469 25.527344 22.097656 25.476562 22.222656 C 25.425781 22.382812 25.371094 22.546875 25.320312 22.714844 C 25.25 22.910156 25.25 22.910156 25.179688 23.109375 C 25.34375 23.125 25.511719 23.140625 25.683594 23.15625 C 25.859375 23.191406 26.039062 23.226562 26.222656 23.257812 C 26.882812 24.246094 26.78125 25.617188 26.574219 26.75 C 26.371094 27.257812 26.371094 27.257812 25.925781 27.480469 C 25.476562 27.554688 25.476562 27.554688 25.179688 27.554688 C 25.257812 27.710938 25.332031 27.867188 25.410156 28.027344 C 25.652344 28.515625 25.648438 28.816406 25.476562 29.332031 C 24.835938 30.210938 24.050781 31.027344 23.09375 31.554688 C 22.710938 31.535156 22.710938 31.535156 22.347656 31.40625 C 22.050781 31.355469 21.753906 31.308594 21.453125 31.257812 C 21.40625 31.601562 21.355469 31.945312 21.304688 32.296875 C 20.082031 32.75 18.640625 32.8125 17.433594 32.296875 C 17.132812 31.851562 17.132812 31.851562 17.132812 31.257812 C 16.5 31.355469 16.5 31.355469 15.886719 31.546875 C 15.203125 31.5625 14.789062 31.105469 14.304688 30.667969 C 13.023438 29.410156 13.023438 29.410156 12.960938 28.59375 C 13.066406 28.214844 13.234375 27.910156 13.410156 27.554688 C 13.269531 27.535156 13.125 27.511719 12.980469 27.492188 C 12.515625 27.40625 12.515625 27.40625 12.21875 27.257812 C 12.070312 26.839844 12.050781 26.449219 12.046875 26.007812 C 12.046875 25.886719 12.046875 25.761719 12.046875 25.636719 C 12.046875 25.507812 12.050781 25.382812 12.050781 25.25 C 12.050781 25.121094 12.046875 24.996094 12.046875 24.863281 C 12.046875 24.738281 12.046875 24.617188 12.046875 24.488281 C 12.046875 24.378906 12.046875 24.265625 12.050781 24.152344 C 12.066406 23.851562 12.066406 23.851562 12.21875 23.40625 C 12.648438 23.191406 12.921875 23.109375 13.410156 23.109375 C 13.359375 22.984375 13.3125 22.855469 13.261719 22.722656 C 13.105469 22.207031 13.054688 21.867188 13.109375 21.332031 C 13.707031 20.441406 14.554688 19.632812 15.496094 19.109375 C 15.886719 19.128906 15.886719 19.128906 16.238281 19.257812 C 16.378906 19.285156 16.515625 19.3125 16.660156 19.34375 C 16.765625 19.363281 16.875 19.386719 16.984375 19.40625 C 17.015625 19.242188 17.046875 19.078125 17.078125 18.90625 C 17.28125 18.371094 17.28125 18.371094 17.679688 18.191406 C 18.851562 17.914062 20.175781 17.925781 21.304688 18.371094 Z M 18.175781 19.257812 C 18.128906 19.425781 18.085938 19.589844 18.035156 19.757812 C 17.878906 20.128906 17.792969 20.265625 17.429688 20.441406 C 16.753906 20.609375 16.265625 20.65625 15.644531 20.296875 C 15.445312 20.453125 15.25 20.609375 15.058594 20.769531 C 14.949219 20.855469 14.839844 20.945312 14.726562 21.035156 C 14.40625 21.382812 14.339844 21.605469 14.304688 22.074219 C 14.351562 22.121094 14.402344 22.171875 14.453125 22.222656 C 14.496094 22.835938 14.484375 23.320312 14.152344 23.851562 C 13.8125 24.046875 13.484375 24.164062 13.109375 24.296875 C 13.109375 24.980469 13.109375 25.664062 13.109375 26.371094 C 13.277344 26.429688 13.441406 26.488281 13.613281 26.546875 C 13.988281 26.710938 14.132812 26.785156 14.378906 27.121094 C 14.453125 27.5625 14.417969 27.847656 14.347656 28.285156 C 14.277344 28.816406 14.277344 28.816406 14.433594 29.316406 C 14.808594 29.78125 15.261719 30.097656 15.792969 30.371094 C 16.015625 30.222656 16.015625 30.222656 16.238281 30.074219 C 16.941406 30.113281 17.480469 30.21875 18.027344 30.667969 C 18.078125 30.910156 18.125 31.15625 18.175781 31.40625 C 18.914062 31.40625 19.652344 31.40625 20.410156 31.40625 C 20.46875 31.242188 20.527344 31.078125 20.589844 30.90625 C 20.761719 30.511719 20.828125 30.390625 21.203125 30.148438 C 21.835938 30.03125 22.34375 30.171875 22.945312 30.371094 C 23.21875 30.207031 23.21875 30.207031 23.476562 29.964844 C 23.609375 29.84375 23.609375 29.84375 23.746094 29.722656 C 24.019531 29.464844 24.019531 29.464844 24.285156 29.035156 C 24.273438 28.691406 24.273438 28.691406 24.203125 28.324219 C 24.117188 27.640625 24.140625 27.234375 24.582031 26.667969 C 24.878906 26.570312 25.171875 26.472656 25.476562 26.371094 C 25.476562 25.6875 25.476562 25 25.476562 24.296875 C 25.226562 24.210938 25.226562 24.210938 24.972656 24.121094 C 24.601562 23.957031 24.457031 23.878906 24.210938 23.546875 C 24.136719 23.105469 24.175781 22.828125 24.25 22.390625 C 24.304688 21.945312 24.328125 21.714844 24.117188 21.3125 C 23.730469 20.855469 23.363281 20.519531 22.796875 20.296875 C 22.703125 20.34375 22.609375 20.386719 22.515625 20.433594 C 21.984375 20.699219 21.515625 20.507812 20.96875 20.34375 C 20.710938 20.148438 20.710938 20.148438 20.410156 19.257812 C 19.675781 19.257812 18.9375 19.257812 18.175781 19.257812 Z M 18.175781 19.257812 "/>
<path style=" stroke:none;fill-rule:nonzero;fill:rgb(1.176471%,1.176471%,1.176471%);fill-opacity:1;" d="M 28.011719 13.035156 C 28.535156 13.117188 28.535156 13.117188 28.753906 13.332031 C 28.769531 13.703125 28.773438 14.070312 28.773438 14.4375 C 28.773438 14.554688 28.773438 14.667969 28.773438 14.789062 C 28.773438 15.171875 28.769531 15.554688 28.769531 15.941406 C 28.769531 16.207031 28.769531 16.472656 28.769531 16.738281 C 28.769531 17.4375 28.765625 18.136719 28.765625 18.835938 C 28.765625 19.550781 28.761719 20.265625 28.761719 20.980469 C 28.761719 22.382812 28.757812 23.785156 28.753906 25.183594 C 29.035156 25.183594 29.035156 25.183594 29.320312 25.183594 C 31.070312 25.179688 32.824219 25.179688 34.574219 25.175781 C 35.476562 25.175781 36.375 25.175781 37.277344 25.175781 C 38.144531 25.171875 39.015625 25.171875 39.882812 25.171875 C 40.214844 25.171875 40.546875 25.171875 40.878906 25.167969 C 41.34375 25.167969 41.804688 25.167969 42.269531 25.167969 C 42.410156 25.167969 42.546875 25.167969 42.691406 25.167969 C 43.636719 25.167969 43.636719 25.167969 43.804688 25.332031 C 43.820312 25.703125 43.820312 25.703125 43.804688 26.074219 C 43.574219 26.304688 43.359375 26.242188 43.039062 26.242188 C 42.90625 26.242188 42.773438 26.242188 42.636719 26.242188 C 42.488281 26.242188 42.339844 26.242188 42.191406 26.242188 C 42.035156 26.242188 41.882812 26.242188 41.722656 26.242188 C 41.210938 26.242188 40.703125 26.242188 40.191406 26.242188 C 39.835938 26.242188 39.484375 26.242188 39.128906 26.242188 C 38.386719 26.242188 37.644531 26.242188 36.902344 26.242188 C 35.949219 26.242188 34.996094 26.242188 34.042969 26.242188 C 33.3125 26.242188 32.582031 26.242188 31.851562 26.242188 C 31.5 26.242188 31.148438 26.242188 30.796875 26.242188 C 30.304688 26.242188 29.816406 26.242188 29.324219 26.242188 C 29.179688 26.242188 29.03125 26.242188 28.878906 26.242188 C 28.746094 26.242188 28.613281 26.242188 28.476562 26.242188 C 28.363281 26.242188 28.246094 26.242188 28.125 26.242188 C 27.859375 26.222656 27.859375 26.222656 27.710938 26.074219 C 27.695312 25.679688 27.691406 25.289062 27.691406 24.890625 C 27.691406 24.769531 27.691406 24.644531 27.6875 24.515625 C 27.6875 24.105469 27.6875 23.695312 27.6875 23.28125 C 27.6875 23 27.6875 22.714844 27.6875 22.429688 C 27.683594 21.832031 27.683594 21.234375 27.683594 20.636719 C 27.683594 19.867188 27.683594 19.101562 27.679688 18.332031 C 27.679688 17.746094 27.679688 17.15625 27.679688 16.570312 C 27.679688 16.285156 27.675781 16.003906 27.675781 15.71875 C 27.675781 15.324219 27.675781 14.929688 27.675781 14.535156 C 27.675781 14.417969 27.675781 14.296875 27.671875 14.175781 C 27.679688 13.367188 27.679688 13.367188 28.011719 13.035156 Z M 28.011719 13.035156 "/>
<path style=" stroke:none;fill-rule:nonzero;fill:rgb(4.313726%,4.313726%,4.313726%);fill-opacity:1;" d="M 39.332031 13.035156 C 39.691406 12.980469 39.691406 12.980469 40.132812 12.976562 C 40.292969 12.976562 40.453125 12.976562 40.617188 12.976562 C 40.78125 12.976562 40.949219 12.980469 41.121094 12.980469 C 41.289062 12.980469 41.453125 12.976562 41.625 12.976562 C 41.863281 12.976562 41.863281 12.976562 42.109375 12.976562 C 42.253906 12.976562 42.402344 12.980469 42.550781 12.980469 C 42.667969 13 42.789062 13.015625 42.910156 13.035156 C 43.226562 13.511719 43.246094 13.644531 43.246094 14.191406 C 43.246094 14.394531 43.246094 14.394531 43.246094 14.605469 C 43.246094 14.746094 43.246094 14.890625 43.246094 15.035156 C 43.246094 15.25 43.246094 15.25 43.246094 15.46875 C 43.246094 15.605469 43.246094 15.742188 43.246094 15.882812 C 43.246094 16.007812 43.246094 16.132812 43.246094 16.261719 C 43.207031 16.59375 43.207031 16.59375 42.910156 17.035156 C 42.183594 16.90625 42.183594 16.90625 42.015625 16.742188 C 41.980469 16.492188 41.953125 16.242188 41.929688 15.992188 C 41.917969 15.855469 41.90625 15.71875 41.894531 15.578125 C 41.882812 15.472656 41.875 15.367188 41.867188 15.257812 C 41.234375 15.871094 40.636719 16.5 40.058594 17.160156 C 39.640625 17.640625 39.214844 18.109375 38.785156 18.574219 C 38.546875 18.84375 38.316406 19.113281 38.085938 19.390625 C 37.972656 19.527344 37.859375 19.664062 37.742188 19.804688 C 37.640625 19.929688 37.535156 20.058594 37.433594 20.1875 C 37.097656 20.445312 37.097656 20.445312 36.691406 20.460938 C 36.023438 20.234375 35.488281 19.871094 34.910156 19.472656 C 34.6875 19.320312 34.460938 19.167969 34.238281 19.019531 C 34.140625 18.949219 34.042969 18.882812 33.941406 18.8125 C 33.65625 18.632812 33.65625 18.632812 33.226562 18.667969 C 33.183594 18.757812 33.140625 18.851562 33.101562 18.945312 C 32.910156 19.367188 32.71875 19.789062 32.527344 20.214844 C 32.460938 20.355469 32.398438 20.5 32.328125 20.648438 C 31.921875 21.546875 31.484375 22.410156 30.988281 23.257812 C 30.742188 23.265625 30.492188 23.265625 30.246094 23.257812 C 30.195312 23.210938 30.148438 23.160156 30.097656 23.109375 C 30.15625 22.3125 30.390625 21.660156 30.738281 20.945312 C 30.785156 20.84375 30.835938 20.738281 30.886719 20.632812 C 30.988281 20.417969 31.089844 20.203125 31.195312 19.988281 C 31.351562 19.65625 31.511719 19.324219 31.667969 18.992188 C 31.765625 18.785156 31.867188 18.574219 31.96875 18.363281 C 32.015625 18.265625 32.0625 18.164062 32.109375 18.0625 C 32.300781 17.664062 32.460938 17.351562 32.777344 17.035156 C 33.355469 17.085938 33.746094 17.289062 34.226562 17.597656 C 34.355469 17.679688 34.484375 17.761719 34.617188 17.84375 C 34.886719 18.015625 35.160156 18.191406 35.425781 18.363281 C 35.554688 18.445312 35.6875 18.523438 35.820312 18.609375 C 35.9375 18.683594 36.050781 18.757812 36.171875 18.835938 C 36.496094 19 36.496094 19 36.8125 18.867188 C 37.105469 18.660156 37.335938 18.453125 37.578125 18.191406 C 37.664062 18.101562 37.75 18.007812 37.839844 17.910156 C 37.929688 17.8125 38.019531 17.714844 38.113281 17.609375 C 38.253906 17.460938 38.253906 17.460938 38.394531 17.304688 C 39.015625 16.632812 39.632812 15.953125 40.226562 15.257812 C 40.3125 15.160156 40.398438 15.0625 40.488281 14.957031 C 40.699219 14.714844 40.910156 14.46875 41.121094 14.222656 C 40.996094 14.21875 40.871094 14.214844 40.742188 14.210938 C 40.496094 14.199219 40.496094 14.199219 40.246094 14.183594 C 40.082031 14.179688 39.921875 14.171875 39.753906 14.164062 C 39.332031 14.074219 39.332031 14.074219 39.128906 13.769531 C 39.097656 13.675781 39.066406 13.578125 39.035156 13.480469 C 39.132812 13.335938 39.230469 13.1875 39.332031 13.035156 Z M 39.332031 13.035156 "/>
<path style=" stroke:none;fill-rule:nonzero;fill:rgb(94.509804%,94.509804%,95.294118%);fill-opacity:1;" d="M 20.617188 22.824219 C 21.257812 23.296875 21.796875 23.832031 22.050781 24.59375 C 22.167969 25.554688 22.023438 26.316406 21.453125 27.109375 C 20.945312 27.644531 20.464844 27.96875 19.710938 28.035156 C 18.773438 28.058594 18.152344 28.070312 17.433594 27.40625 C 16.71875 26.640625 16.464844 25.964844 16.492188 24.929688 C 16.597656 24.152344 17.015625 23.628906 17.597656 23.128906 C 18.492188 22.472656 19.570312 22.496094 20.617188 22.824219 Z M 20.617188 22.824219 "/>
<path style=" stroke:none;fill-rule:nonzero;fill:rgb(3.529412%,3.529412%,3.529412%);fill-opacity:1;" d="M 21.15625 21.925781 C 22.085938 22.464844 22.703125 23.082031 23.03125 24.125 C 23.304688 25.515625 23.109375 26.714844 22.328125 27.878906 C 21.515625 28.777344 20.445312 29.132812 19.265625 29.230469 C 18.234375 29.210938 17.308594 28.808594 16.554688 28.109375 C 15.617188 27.0625 15.390625 26.203125 15.4375 24.792969 C 15.558594 23.738281 16.058594 23.019531 16.828125 22.300781 C 18.171875 21.296875 19.65625 21.234375 21.15625 21.925781 Z M 17.011719 23.714844 C 16.480469 24.421875 16.4375 25.066406 16.539062 25.925781 C 16.8125 26.804688 17.285156 27.324219 18.027344 27.851562 C 18.773438 28.222656 19.859375 28.082031 20.625 27.832031 C 21.304688 27.339844 21.839844 26.746094 22.050781 25.925781 C 22.152344 25.113281 22.101562 24.480469 21.644531 23.789062 C 21.21875 23.265625 20.761719 22.882812 20.113281 22.667969 C 18.75 22.546875 17.941406 22.667969 17.011719 23.714844 Z M 17.011719 23.714844 "/>
</g>
</svg>
