<svg xmlns="http://www.w3.org/2000/svg" version="1.1" xmlns:xlink="http://www.w3.org/1999/xlink" xmlns:svgjs="http://svgjs.dev/svgjs" width="1920" height="680" preserveAspectRatio="none" viewBox="0 0 1920 680">
    <g mask="url(&quot;#SvgjsMask1371&quot;)" fill="none">
        <rect width="1920" height="680" x="0" y="0" fill="url(&quot;#SvgjsLinearGradient1372&quot;)"></rect>
        <path d="M62.68 -64.67L127.63 -27.17L127.63 47.83L62.68 85.33L-2.27 47.83L-2.27 -27.17zM127.63 272.83L192.59 310.33L192.59 385.33L127.63 422.83L62.68 385.33L62.68 310.33zM127.63 497.83L192.59 535.33L192.59 610.33L127.63 647.83L62.68 610.33L62.68 535.33zM192.59 -64.67L257.54 -27.17L257.54 47.83L192.59 85.33L127.63 47.83L127.63 -27.17zM257.54 47.83L322.5 85.33L322.5 160.33L257.54 197.83L192.59 160.33L192.59 85.33zM257.54 272.83L322.5 310.33L322.5 385.33L257.54 422.83L192.59 385.33L192.59 310.33zM257.54 497.83L322.5 535.33L322.5 610.33L257.54 647.83L192.59 610.33L192.59 535.33zM192.59 610.33L257.54 647.83L257.54 722.83L192.59 760.33L127.63 722.83L127.63 647.83zM387.45 47.83L452.4 85.33L452.4 160.33L387.45 197.83L322.5 160.33L322.5 85.33zM322.5 385.33L387.45 422.83L387.45 497.83L322.5 535.33L257.54 497.83L257.54 422.83zM387.45 497.83L452.4 535.33L452.4 610.33L387.45 647.83L322.5 610.33L322.5 535.33zM322.5 610.33L387.45 647.83L387.45 722.83L322.5 760.33L257.54 722.83L257.54 647.83zM517.36 47.83L582.31 85.33L582.31 160.33L517.36 197.83L452.4 160.33L452.4 85.33zM517.36 272.83L582.31 310.33L582.31 385.33L517.36 422.83L452.4 385.33L452.4 310.33zM517.36 497.83L582.31 535.33L582.31 610.33L517.36 647.83L452.4 610.33L452.4 535.33zM582.31 -64.67L647.26 -27.17L647.26 47.83L582.31 85.33L517.36 47.83L517.36 -27.17zM582.31 160.33L647.26 197.83L647.26 272.83L582.31 310.33L517.36 272.83L517.36 197.83zM647.26 272.83L712.22 310.33L712.22 385.33L647.26 422.83L582.31 385.33L582.31 310.33zM582.31 610.33L647.26 647.83L647.26 722.83L582.31 760.33L517.36 722.83L517.36 647.83zM712.22 -64.67L777.17 -27.17L777.17 47.83L712.22 85.33L647.26 47.83L647.26 -27.17zM777.17 47.83L842.13 85.33L842.13 160.33L777.17 197.83L712.22 160.33L712.22 85.33zM712.22 160.33L777.17 197.83L777.17 272.83L712.22 310.33L647.26 272.83L647.26 197.83zM712.22 385.33L777.17 422.83L777.17 497.83L712.22 535.33L647.26 497.83L647.26 422.83zM842.12 160.33L907.08 197.83L907.08 272.83L842.12 310.33L777.17 272.83L777.17 197.83zM907.08 272.83L972.03 310.33L972.03 385.33L907.08 422.83L842.12 385.33L842.12 310.33zM842.12 385.33L907.08 422.83L907.08 497.83L842.12 535.33L777.17 497.83L777.17 422.83zM972.03 -64.67L1036.99 -27.17L1036.99 47.83L972.03 85.33L907.08 47.83L907.08 -27.17zM972.03 160.33L1036.99 197.83L1036.99 272.83L972.03 310.33L907.08 272.83L907.08 197.83zM1166.89 47.83L1231.85 85.33L1231.85 160.33L1166.89 197.83L1101.94 160.33L1101.94 85.33zM1166.89 272.83L1231.85 310.33L1231.85 385.33L1166.89 422.83L1101.94 385.33L1101.94 310.33zM1231.85 -64.67L1296.8 -27.17L1296.8 47.83L1231.85 85.33L1166.89 47.83L1166.89 -27.17zM1296.8 47.83L1361.75 85.33L1361.75 160.33L1296.8 197.83L1231.85 160.33L1231.85 85.33zM1231.85 160.33L1296.8 197.83L1296.8 272.83L1231.85 310.33L1166.89 272.83L1166.89 197.83zM1296.8 497.83L1361.75 535.33L1361.75 610.33L1296.8 647.83L1231.85 610.33L1231.85 535.33zM1426.71 272.83L1491.66 310.33L1491.66 385.33L1426.71 422.83L1361.76 385.33L1361.76 310.33zM1361.76 385.33L1426.71 422.83L1426.71 497.83L1361.76 535.33L1296.8 497.83L1296.8 422.83zM1361.76 610.33L1426.71 647.83L1426.71 722.83L1361.76 760.33L1296.8 722.83L1296.8 647.83zM1491.66 160.33L1556.62 197.83L1556.62 272.83L1491.66 310.33L1426.71 272.83L1426.71 197.83zM1751.48 -64.67L1816.43 -27.17L1816.43 47.83L1751.48 85.33L1686.52 47.83L1686.52 -27.17zM1881.38 160.33L1946.34 197.83L1946.34 272.83L1881.38 310.33L1816.43 272.83L1816.43 197.83zM1946.34 272.83L2011.29 310.33L2011.29 385.33L1946.34 422.83L1881.38 385.33L1881.38 310.33zM1881.38 385.33L1946.34 422.83L1946.34 497.83L1881.38 535.33L1816.43 497.83L1816.43 422.83z" stroke="#03305d" stroke-width="2"></path>
        <path d="M55.18 -64.67 a7.5 7.5 0 1 0 15 0 a7.5 7.5 0 1 0 -15 0zM120.13 -27.17 a7.5 7.5 0 1 0 15 0 a7.5 7.5 0 1 0 -15 0zM120.13 47.83 a7.5 7.5 0 1 0 15 0 a7.5 7.5 0 1 0 -15 0zM55.18 85.33 a7.5 7.5 0 1 0 15 0 a7.5 7.5 0 1 0 -15 0zM-9.77 47.83 a7.5 7.5 0 1 0 15 0 a7.5 7.5 0 1 0 -15 0zM-9.77 -27.17 a7.5 7.5 0 1 0 15 0 a7.5 7.5 0 1 0 -15 0zM120.13 272.83 a7.5 7.5 0 1 0 15 0 a7.5 7.5 0 1 0 -15 0zM185.09 310.33 a7.5 7.5 0 1 0 15 0 a7.5 7.5 0 1 0 -15 0zM185.09 385.33 a7.5 7.5 0 1 0 15 0 a7.5 7.5 0 1 0 -15 0zM120.13 422.83 a7.5 7.5 0 1 0 15 0 a7.5 7.5 0 1 0 -15 0zM55.18 385.33 a7.5 7.5 0 1 0 15 0 a7.5 7.5 0 1 0 -15 0zM55.18 310.33 a7.5 7.5 0 1 0 15 0 a7.5 7.5 0 1 0 -15 0zM120.13 497.83 a7.5 7.5 0 1 0 15 0 a7.5 7.5 0 1 0 -15 0zM185.09 535.33 a7.5 7.5 0 1 0 15 0 a7.5 7.5 0 1 0 -15 0zM185.09 610.33 a7.5 7.5 0 1 0 15 0 a7.5 7.5 0 1 0 -15 0zM120.13 647.83 a7.5 7.5 0 1 0 15 0 a7.5 7.5 0 1 0 -15 0zM55.18 610.33 a7.5 7.5 0 1 0 15 0 a7.5 7.5 0 1 0 -15 0zM55.18 535.33 a7.5 7.5 0 1 0 15 0 a7.5 7.5 0 1 0 -15 0zM185.09 -64.67 a7.5 7.5 0 1 0 15 0 a7.5 7.5 0 1 0 -15 0zM250.04 -27.17 a7.5 7.5 0 1 0 15 0 a7.5 7.5 0 1 0 -15 0zM250.04 47.83 a7.5 7.5 0 1 0 15 0 a7.5 7.5 0 1 0 -15 0zM185.09 85.33 a7.5 7.5 0 1 0 15 0 a7.5 7.5 0 1 0 -15 0zM315 85.33 a7.5 7.5 0 1 0 15 0 a7.5 7.5 0 1 0 -15 0zM315 160.33 a7.5 7.5 0 1 0 15 0 a7.5 7.5 0 1 0 -15 0zM250.04 197.83 a7.5 7.5 0 1 0 15 0 a7.5 7.5 0 1 0 -15 0zM185.09 160.33 a7.5 7.5 0 1 0 15 0 a7.5 7.5 0 1 0 -15 0zM250.04 272.83 a7.5 7.5 0 1 0 15 0 a7.5 7.5 0 1 0 -15 0zM315 310.33 a7.5 7.5 0 1 0 15 0 a7.5 7.5 0 1 0 -15 0zM315 385.33 a7.5 7.5 0 1 0 15 0 a7.5 7.5 0 1 0 -15 0zM250.04 422.83 a7.5 7.5 0 1 0 15 0 a7.5 7.5 0 1 0 -15 0zM250.04 497.83 a7.5 7.5 0 1 0 15 0 a7.5 7.5 0 1 0 -15 0zM315 535.33 a7.5 7.5 0 1 0 15 0 a7.5 7.5 0 1 0 -15 0zM315 610.33 a7.5 7.5 0 1 0 15 0 a7.5 7.5 0 1 0 -15 0zM250.04 647.83 a7.5 7.5 0 1 0 15 0 a7.5 7.5 0 1 0 -15 0zM250.04 722.83 a7.5 7.5 0 1 0 15 0 a7.5 7.5 0 1 0 -15 0zM185.09 760.33 a7.5 7.5 0 1 0 15 0 a7.5 7.5 0 1 0 -15 0zM120.13 722.83 a7.5 7.5 0 1 0 15 0 a7.5 7.5 0 1 0 -15 0zM379.95 47.83 a7.5 7.5 0 1 0 15 0 a7.5 7.5 0 1 0 -15 0zM444.9 85.33 a7.5 7.5 0 1 0 15 0 a7.5 7.5 0 1 0 -15 0zM444.9 160.33 a7.5 7.5 0 1 0 15 0 a7.5 7.5 0 1 0 -15 0zM379.95 197.83 a7.5 7.5 0 1 0 15 0 a7.5 7.5 0 1 0 -15 0zM379.95 422.83 a7.5 7.5 0 1 0 15 0 a7.5 7.5 0 1 0 -15 0zM379.95 497.83 a7.5 7.5 0 1 0 15 0 a7.5 7.5 0 1 0 -15 0zM444.9 535.33 a7.5 7.5 0 1 0 15 0 a7.5 7.5 0 1 0 -15 0zM444.9 610.33 a7.5 7.5 0 1 0 15 0 a7.5 7.5 0 1 0 -15 0zM379.95 647.83 a7.5 7.5 0 1 0 15 0 a7.5 7.5 0 1 0 -15 0zM379.95 722.83 a7.5 7.5 0 1 0 15 0 a7.5 7.5 0 1 0 -15 0zM315 760.33 a7.5 7.5 0 1 0 15 0 a7.5 7.5 0 1 0 -15 0zM509.86 47.83 a7.5 7.5 0 1 0 15 0 a7.5 7.5 0 1 0 -15 0zM574.81 85.33 a7.5 7.5 0 1 0 15 0 a7.5 7.5 0 1 0 -15 0zM574.81 160.33 a7.5 7.5 0 1 0 15 0 a7.5 7.5 0 1 0 -15 0zM509.86 197.83 a7.5 7.5 0 1 0 15 0 a7.5 7.5 0 1 0 -15 0zM509.86 272.83 a7.5 7.5 0 1 0 15 0 a7.5 7.5 0 1 0 -15 0zM574.81 310.33 a7.5 7.5 0 1 0 15 0 a7.5 7.5 0 1 0 -15 0zM574.81 385.33 a7.5 7.5 0 1 0 15 0 a7.5 7.5 0 1 0 -15 0zM509.86 422.83 a7.5 7.5 0 1 0 15 0 a7.5 7.5 0 1 0 -15 0zM444.9 385.33 a7.5 7.5 0 1 0 15 0 a7.5 7.5 0 1 0 -15 0zM444.9 310.33 a7.5 7.5 0 1 0 15 0 a7.5 7.5 0 1 0 -15 0zM509.86 497.83 a7.5 7.5 0 1 0 15 0 a7.5 7.5 0 1 0 -15 0zM574.81 535.33 a7.5 7.5 0 1 0 15 0 a7.5 7.5 0 1 0 -15 0zM574.81 610.33 a7.5 7.5 0 1 0 15 0 a7.5 7.5 0 1 0 -15 0zM509.86 647.83 a7.5 7.5 0 1 0 15 0 a7.5 7.5 0 1 0 -15 0zM574.81 -64.67 a7.5 7.5 0 1 0 15 0 a7.5 7.5 0 1 0 -15 0zM639.76 -27.17 a7.5 7.5 0 1 0 15 0 a7.5 7.5 0 1 0 -15 0zM639.76 47.83 a7.5 7.5 0 1 0 15 0 a7.5 7.5 0 1 0 -15 0zM509.86 -27.17 a7.5 7.5 0 1 0 15 0 a7.5 7.5 0 1 0 -15 0zM639.76 197.83 a7.5 7.5 0 1 0 15 0 a7.5 7.5 0 1 0 -15 0zM639.76 272.83 a7.5 7.5 0 1 0 15 0 a7.5 7.5 0 1 0 -15 0zM704.72 310.33 a7.5 7.5 0 1 0 15 0 a7.5 7.5 0 1 0 -15 0zM704.72 385.33 a7.5 7.5 0 1 0 15 0 a7.5 7.5 0 1 0 -15 0zM639.76 422.83 a7.5 7.5 0 1 0 15 0 a7.5 7.5 0 1 0 -15 0zM639.76 647.83 a7.5 7.5 0 1 0 15 0 a7.5 7.5 0 1 0 -15 0zM639.76 722.83 a7.5 7.5 0 1 0 15 0 a7.5 7.5 0 1 0 -15 0zM574.81 760.33 a7.5 7.5 0 1 0 15 0 a7.5 7.5 0 1 0 -15 0zM509.86 722.83 a7.5 7.5 0 1 0 15 0 a7.5 7.5 0 1 0 -15 0zM704.72 -64.67 a7.5 7.5 0 1 0 15 0 a7.5 7.5 0 1 0 -15 0zM769.67 -27.17 a7.5 7.5 0 1 0 15 0 a7.5 7.5 0 1 0 -15 0zM769.67 47.83 a7.5 7.5 0 1 0 15 0 a7.5 7.5 0 1 0 -15 0zM704.72 85.33 a7.5 7.5 0 1 0 15 0 a7.5 7.5 0 1 0 -15 0zM834.63 85.33 a7.5 7.5 0 1 0 15 0 a7.5 7.5 0 1 0 -15 0zM834.63 160.33 a7.5 7.5 0 1 0 15 0 a7.5 7.5 0 1 0 -15 0zM769.67 197.83 a7.5 7.5 0 1 0 15 0 a7.5 7.5 0 1 0 -15 0zM704.72 160.33 a7.5 7.5 0 1 0 15 0 a7.5 7.5 0 1 0 -15 0zM769.67 272.83 a7.5 7.5 0 1 0 15 0 a7.5 7.5 0 1 0 -15 0zM769.67 422.83 a7.5 7.5 0 1 0 15 0 a7.5 7.5 0 1 0 -15 0zM769.67 497.83 a7.5 7.5 0 1 0 15 0 a7.5 7.5 0 1 0 -15 0zM704.72 535.33 a7.5 7.5 0 1 0 15 0 a7.5 7.5 0 1 0 -15 0zM639.76 497.83 a7.5 7.5 0 1 0 15 0 a7.5 7.5 0 1 0 -15 0zM834.62 160.33 a7.5 7.5 0 1 0 15 0 a7.5 7.5 0 1 0 -15 0zM899.58 197.83 a7.5 7.5 0 1 0 15 0 a7.5 7.5 0 1 0 -15 0zM899.58 272.83 a7.5 7.5 0 1 0 15 0 a7.5 7.5 0 1 0 -15 0zM834.62 310.33 a7.5 7.5 0 1 0 15 0 a7.5 7.5 0 1 0 -15 0zM964.53 310.33 a7.5 7.5 0 1 0 15 0 a7.5 7.5 0 1 0 -15 0zM964.53 385.33 a7.5 7.5 0 1 0 15 0 a7.5 7.5 0 1 0 -15 0zM899.58 422.83 a7.5 7.5 0 1 0 15 0 a7.5 7.5 0 1 0 -15 0zM834.62 385.33 a7.5 7.5 0 1 0 15 0 a7.5 7.5 0 1 0 -15 0zM899.58 497.83 a7.5 7.5 0 1 0 15 0 a7.5 7.5 0 1 0 -15 0zM834.62 535.33 a7.5 7.5 0 1 0 15 0 a7.5 7.5 0 1 0 -15 0zM964.53 -64.67 a7.5 7.5 0 1 0 15 0 a7.5 7.5 0 1 0 -15 0zM1029.49 -27.17 a7.5 7.5 0 1 0 15 0 a7.5 7.5 0 1 0 -15 0zM1029.49 47.83 a7.5 7.5 0 1 0 15 0 a7.5 7.5 0 1 0 -15 0zM964.53 85.33 a7.5 7.5 0 1 0 15 0 a7.5 7.5 0 1 0 -15 0zM899.58 47.83 a7.5 7.5 0 1 0 15 0 a7.5 7.5 0 1 0 -15 0zM899.58 -27.17 a7.5 7.5 0 1 0 15 0 a7.5 7.5 0 1 0 -15 0zM964.53 160.33 a7.5 7.5 0 1 0 15 0 a7.5 7.5 0 1 0 -15 0zM1029.49 197.83 a7.5 7.5 0 1 0 15 0 a7.5 7.5 0 1 0 -15 0zM1029.49 272.83 a7.5 7.5 0 1 0 15 0 a7.5 7.5 0 1 0 -15 0zM1159.39 47.83 a7.5 7.5 0 1 0 15 0 a7.5 7.5 0 1 0 -15 0zM1224.35 85.33 a7.5 7.5 0 1 0 15 0 a7.5 7.5 0 1 0 -15 0zM1224.35 160.33 a7.5 7.5 0 1 0 15 0 a7.5 7.5 0 1 0 -15 0zM1159.39 197.83 a7.5 7.5 0 1 0 15 0 a7.5 7.5 0 1 0 -15 0zM1094.44 160.33 a7.5 7.5 0 1 0 15 0 a7.5 7.5 0 1 0 -15 0zM1094.44 85.33 a7.5 7.5 0 1 0 15 0 a7.5 7.5 0 1 0 -15 0zM1159.39 272.83 a7.5 7.5 0 1 0 15 0 a7.5 7.5 0 1 0 -15 0zM1224.35 310.33 a7.5 7.5 0 1 0 15 0 a7.5 7.5 0 1 0 -15 0zM1224.35 385.33 a7.5 7.5 0 1 0 15 0 a7.5 7.5 0 1 0 -15 0zM1159.39 422.83 a7.5 7.5 0 1 0 15 0 a7.5 7.5 0 1 0 -15 0zM1094.44 385.33 a7.5 7.5 0 1 0 15 0 a7.5 7.5 0 1 0 -15 0zM1094.44 310.33 a7.5 7.5 0 1 0 15 0 a7.5 7.5 0 1 0 -15 0zM1224.35 -64.67 a7.5 7.5 0 1 0 15 0 a7.5 7.5 0 1 0 -15 0zM1289.3 -27.17 a7.5 7.5 0 1 0 15 0 a7.5 7.5 0 1 0 -15 0zM1289.3 47.83 a7.5 7.5 0 1 0 15 0 a7.5 7.5 0 1 0 -15 0zM1159.39 -27.17 a7.5 7.5 0 1 0 15 0 a7.5 7.5 0 1 0 -15 0zM1354.25 85.33 a7.5 7.5 0 1 0 15 0 a7.5 7.5 0 1 0 -15 0zM1354.25 160.33 a7.5 7.5 0 1 0 15 0 a7.5 7.5 0 1 0 -15 0zM1289.3 197.83 a7.5 7.5 0 1 0 15 0 a7.5 7.5 0 1 0 -15 0zM1289.3 272.83 a7.5 7.5 0 1 0 15 0 a7.5 7.5 0 1 0 -15 0zM1289.3 497.83 a7.5 7.5 0 1 0 15 0 a7.5 7.5 0 1 0 -15 0zM1354.25 535.33 a7.5 7.5 0 1 0 15 0 a7.5 7.5 0 1 0 -15 0zM1354.25 610.33 a7.5 7.5 0 1 0 15 0 a7.5 7.5 0 1 0 -15 0zM1289.3 647.83 a7.5 7.5 0 1 0 15 0 a7.5 7.5 0 1 0 -15 0zM1224.35 610.33 a7.5 7.5 0 1 0 15 0 a7.5 7.5 0 1 0 -15 0zM1224.35 535.33 a7.5 7.5 0 1 0 15 0 a7.5 7.5 0 1 0 -15 0zM1419.21 272.83 a7.5 7.5 0 1 0 15 0 a7.5 7.5 0 1 0 -15 0zM1484.16 310.33 a7.5 7.5 0 1 0 15 0 a7.5 7.5 0 1 0 -15 0zM1484.16 385.33 a7.5 7.5 0 1 0 15 0 a7.5 7.5 0 1 0 -15 0zM1419.21 422.83 a7.5 7.5 0 1 0 15 0 a7.5 7.5 0 1 0 -15 0zM1354.26 385.33 a7.5 7.5 0 1 0 15 0 a7.5 7.5 0 1 0 -15 0zM1354.26 310.33 a7.5 7.5 0 1 0 15 0 a7.5 7.5 0 1 0 -15 0zM1419.21 497.83 a7.5 7.5 0 1 0 15 0 a7.5 7.5 0 1 0 -15 0zM1354.26 535.33 a7.5 7.5 0 1 0 15 0 a7.5 7.5 0 1 0 -15 0zM1289.3 422.83 a7.5 7.5 0 1 0 15 0 a7.5 7.5 0 1 0 -15 0zM1354.26 610.33 a7.5 7.5 0 1 0 15 0 a7.5 7.5 0 1 0 -15 0zM1419.21 647.83 a7.5 7.5 0 1 0 15 0 a7.5 7.5 0 1 0 -15 0zM1419.21 722.83 a7.5 7.5 0 1 0 15 0 a7.5 7.5 0 1 0 -15 0zM1354.26 760.33 a7.5 7.5 0 1 0 15 0 a7.5 7.5 0 1 0 -15 0zM1289.3 722.83 a7.5 7.5 0 1 0 15 0 a7.5 7.5 0 1 0 -15 0zM1484.16 160.33 a7.5 7.5 0 1 0 15 0 a7.5 7.5 0 1 0 -15 0zM1549.12 197.83 a7.5 7.5 0 1 0 15 0 a7.5 7.5 0 1 0 -15 0zM1549.12 272.83 a7.5 7.5 0 1 0 15 0 a7.5 7.5 0 1 0 -15 0zM1419.21 197.83 a7.5 7.5 0 1 0 15 0 a7.5 7.5 0 1 0 -15 0zM1743.98 -64.67 a7.5 7.5 0 1 0 15 0 a7.5 7.5 0 1 0 -15 0zM1808.93 -27.17 a7.5 7.5 0 1 0 15 0 a7.5 7.5 0 1 0 -15 0zM1808.93 47.83 a7.5 7.5 0 1 0 15 0 a7.5 7.5 0 1 0 -15 0zM1743.98 85.33 a7.5 7.5 0 1 0 15 0 a7.5 7.5 0 1 0 -15 0zM1679.02 47.83 a7.5 7.5 0 1 0 15 0 a7.5 7.5 0 1 0 -15 0zM1679.02 -27.17 a7.5 7.5 0 1 0 15 0 a7.5 7.5 0 1 0 -15 0zM1873.88 160.33 a7.5 7.5 0 1 0 15 0 a7.5 7.5 0 1 0 -15 0zM1938.84 197.83 a7.5 7.5 0 1 0 15 0 a7.5 7.5 0 1 0 -15 0zM1938.84 272.83 a7.5 7.5 0 1 0 15 0 a7.5 7.5 0 1 0 -15 0zM1873.88 310.33 a7.5 7.5 0 1 0 15 0 a7.5 7.5 0 1 0 -15 0zM1808.93 272.83 a7.5 7.5 0 1 0 15 0 a7.5 7.5 0 1 0 -15 0zM1808.93 197.83 a7.5 7.5 0 1 0 15 0 a7.5 7.5 0 1 0 -15 0zM2003.79 310.33 a7.5 7.5 0 1 0 15 0 a7.5 7.5 0 1 0 -15 0zM2003.79 385.33 a7.5 7.5 0 1 0 15 0 a7.5 7.5 0 1 0 -15 0zM1938.84 422.83 a7.5 7.5 0 1 0 15 0 a7.5 7.5 0 1 0 -15 0zM1873.88 385.33 a7.5 7.5 0 1 0 15 0 a7.5 7.5 0 1 0 -15 0zM1938.84 497.83 a7.5 7.5 0 1 0 15 0 a7.5 7.5 0 1 0 -15 0zM1873.88 535.33 a7.5 7.5 0 1 0 15 0 a7.5 7.5 0 1 0 -15 0zM1808.93 497.83 a7.5 7.5 0 1 0 15 0 a7.5 7.5 0 1 0 -15 0zM1808.93 422.83 a7.5 7.5 0 1 0 15 0 a7.5 7.5 0 1 0 -15 0z" fill="#03305d"></path>
        <path d="M27.23 -19.22L84.39 13.78L84.39 79.78L27.23 112.78L-29.93 79.78L-29.93 13.78zM84.39 277.78L141.55 310.78L141.55 376.78L84.39 409.78L27.23 376.78L27.23 310.78zM27.23 376.78L84.39 409.78L84.39 475.78L27.23 508.78L-29.93 475.78L-29.93 409.78zM84.39 475.78L141.55 508.78L141.55 574.78L84.39 607.78L27.23 574.78L27.23 508.78zM27.23 574.78L84.39 607.78L84.39 673.78L27.23 706.78L-29.93 673.78L-29.93 607.78zM198.71 79.78L255.87 112.78L255.87 178.78L198.71 211.78L141.55 178.78L141.55 112.78zM141.55 178.78L198.71 211.78L198.71 277.78L141.55 310.78L84.39 277.78L84.39 211.78zM198.71 277.78L255.87 310.78L255.87 376.78L198.71 409.78L141.55 376.78L141.55 310.78zM141.55 376.78L198.71 409.78L198.71 475.78L141.55 508.78L84.39 475.78L84.39 409.78zM255.87 -19.22L313.03 13.78L313.03 79.78L255.87 112.78L198.71 79.78L198.71 13.78zM313.03 79.78L370.19 112.78L370.19 178.78L313.03 211.78L255.87 178.78L255.87 112.78zM313.03 277.78L370.19 310.78L370.19 376.78L313.03 409.78L255.87 376.78L255.87 310.78zM313.03 475.78L370.19 508.78L370.19 574.78L313.03 607.78L255.87 574.78L255.87 508.78zM370.19 -19.22L427.35 13.78L427.35 79.78L370.19 112.78L313.03 79.78L313.03 13.78zM370.19 376.78L427.35 409.78L427.35 475.78L370.19 508.78L313.03 475.78L313.03 409.78zM427.35 475.78L484.5 508.78L484.5 574.78L427.35 607.78L370.19 574.78L370.19 508.78zM484.5 178.78L541.66 211.78L541.66 277.78L484.5 310.78L427.35 277.78L427.35 211.78zM541.66 277.78L598.82 310.78L598.82 376.78L541.66 409.78L484.5 376.78L484.5 310.78zM484.5 376.78L541.66 409.78L541.66 475.78L484.5 508.78L427.35 475.78L427.35 409.78zM541.66 475.78L598.82 508.78L598.82 574.78L541.66 607.78L484.5 574.78L484.5 508.78zM484.5 574.78L541.66 607.78L541.66 673.78L484.5 706.78L427.35 673.78L427.35 607.78zM541.66 673.78L598.82 706.78L598.82 772.78L541.66 805.78L484.5 772.78L484.5 706.78zM655.98 277.78L713.14 310.78L713.14 376.78L655.98 409.78L598.82 376.78L598.82 310.78zM598.82 376.78L655.98 409.78L655.98 475.78L598.82 508.78L541.66 475.78L541.66 409.78zM598.82 574.78L655.98 607.78L655.98 673.78L598.82 706.78L541.66 673.78L541.66 607.78zM655.98 673.78L713.14 706.78L713.14 772.78L655.98 805.78L598.82 772.78L598.82 706.78zM770.3 79.78L827.46 112.78L827.46 178.78L770.3 211.78L713.14 178.78L713.14 112.78zM713.14 178.78L770.3 211.78L770.3 277.78L713.14 310.78L655.98 277.78L655.98 211.78zM770.3 277.78L827.46 310.78L827.46 376.78L770.3 409.78L713.14 376.78L713.14 310.78zM713.14 574.78L770.3 607.78L770.3 673.78L713.14 706.78L655.98 673.78L655.98 607.78zM827.46 -19.22L884.62 13.78L884.62 79.78L827.46 112.78L770.3 79.78L770.3 13.78zM827.46 574.78L884.62 607.78L884.62 673.78L827.46 706.78L770.3 673.78L770.3 607.78zM884.62 673.78L941.78 706.78L941.78 772.78L884.62 805.78L827.46 772.78L827.46 706.78zM998.94 277.78L1056.1 310.78L1056.1 376.78L998.94 409.78L941.78 376.78L941.78 310.78zM998.94 475.78L1056.1 508.78L1056.1 574.78L998.94 607.78L941.78 574.78L941.78 508.78zM998.94 673.78L1056.1 706.78L1056.1 772.78L998.94 805.78L941.78 772.78L941.78 706.78zM1056.1 178.78L1113.26 211.78L1113.26 277.78L1056.1 310.78L998.94 277.78L998.94 211.78zM1113.26 277.78L1170.42 310.78L1170.42 376.78L1113.26 409.78L1056.1 376.78L1056.1 310.78zM1227.58 79.78L1284.73 112.78L1284.73 178.78L1227.58 211.78L1170.42 178.78L1170.42 112.78zM1170.42 376.78L1227.58 409.78L1227.58 475.78L1170.42 508.78L1113.26 475.78L1113.26 409.78zM1170.42 574.78L1227.58 607.78L1227.58 673.78L1170.42 706.78L1113.26 673.78L1113.26 607.78zM1227.58 673.78L1284.73 706.78L1284.73 772.78L1227.58 805.78L1170.42 772.78L1170.42 706.78zM1284.73 -19.22L1341.89 13.78L1341.89 79.78L1284.73 112.78L1227.58 79.78L1227.58 13.78zM1341.89 79.78L1399.05 112.78L1399.05 178.78L1341.89 211.78L1284.73 178.78L1284.73 112.78zM1284.73 178.78L1341.89 211.78L1341.89 277.78L1284.73 310.78L1227.58 277.78L1227.58 211.78zM1341.89 277.78L1399.05 310.78L1399.05 376.78L1341.89 409.78L1284.73 376.78L1284.73 310.78zM1284.73 574.78L1341.89 607.78L1341.89 673.78L1284.73 706.78L1227.58 673.78L1227.58 607.78zM1399.05 -19.22L1456.21 13.78L1456.21 79.78L1399.05 112.78L1341.89 79.78L1341.89 13.78zM1456.21 79.78L1513.37 112.78L1513.37 178.78L1456.21 211.78L1399.05 178.78L1399.05 112.78zM1399.05 178.78L1456.21 211.78L1456.21 277.78L1399.05 310.78L1341.89 277.78L1341.89 211.78zM1456.21 475.78L1513.37 508.78L1513.37 574.78L1456.21 607.78L1399.05 574.78L1399.05 508.78zM1399.05 574.78L1456.21 607.78L1456.21 673.78L1399.05 706.78L1341.89 673.78L1341.89 607.78zM1456.21 673.78L1513.37 706.78L1513.37 772.78L1456.21 805.78L1399.05 772.78L1399.05 706.78zM1570.53 277.78L1627.69 310.78L1627.69 376.78L1570.53 409.78L1513.37 376.78L1513.37 310.78zM1513.37 376.78L1570.53 409.78L1570.53 475.78L1513.37 508.78L1456.21 475.78L1456.21 409.78zM1570.53 475.78L1627.69 508.78L1627.69 574.78L1570.53 607.78L1513.37 574.78L1513.37 508.78zM1627.69 -19.22L1684.85 13.78L1684.85 79.78L1627.69 112.78L1570.53 79.78L1570.53 13.78zM1627.69 178.78L1684.85 211.78L1684.85 277.78L1627.69 310.78L1570.53 277.78L1570.53 211.78zM1627.69 376.78L1684.85 409.78L1684.85 475.78L1627.69 508.78L1570.53 475.78L1570.53 409.78zM1742.01 -19.22L1799.17 13.78L1799.17 79.78L1742.01 112.78L1684.85 79.78L1684.85 13.78zM1799.17 79.78L1856.33 112.78L1856.33 178.78L1799.17 211.78L1742.01 178.78L1742.01 112.78zM1742.01 178.78L1799.17 211.78L1799.17 277.78L1742.01 310.78L1684.85 277.78L1684.85 211.78zM1799.17 277.78L1856.33 310.78L1856.33 376.78L1799.17 409.78L1742.01 376.78L1742.01 310.78zM1742.01 574.78L1799.17 607.78L1799.17 673.78L1742.01 706.78L1684.85 673.78L1684.85 607.78zM1856.33 -19.22L1913.49 13.78L1913.49 79.78L1856.33 112.78L1799.17 79.78L1799.17 13.78zM1913.49 79.78L1970.65 112.78L1970.65 178.78L1913.49 211.78L1856.33 178.78L1856.33 112.78zM1856.33 178.78L1913.49 211.78L1913.49 277.78L1856.33 310.78L1799.17 277.78L1799.17 211.78zM1913.49 277.78L1970.65 310.78L1970.65 376.78L1913.49 409.78L1856.33 376.78L1856.33 310.78zM1913.49 673.78L1970.65 706.78L1970.65 772.78L1913.49 805.78L1856.33 772.78L1856.33 706.78z" stroke="rgba(6, 80, 156, 0.93)" stroke-width="2"></path>
    </g>
    <defs>
        <mask id="SvgjsMask1371">
            <rect width="1920" height="680" fill="#ffffff"></rect>
        </mask>
        <linearGradient x1="0%" y1="50%" x2="100%" y2="50%" gradientUnits="userSpaceOnUse" id="SvgjsLinearGradient1372">
            <stop stop-color="#0e2a47" offset="0"></stop>
            <stop stop-color="rgba(3, 28, 60, 1)" offset="1"></stop>
        </linearGradient>
    </defs>
</svg>