<?xml version="1.0" encoding="UTF-8"?>
<svg xmlns="http://www.w3.org/2000/svg" xmlns:xlink="http://www.w3.org/1999/xlink" width="59px" height="63px" viewBox="0 0 59 50" version="1.1">
<g id="surface1">
<path style=" stroke:none;fill-rule:nonzero;fill:rgb(95.294118%,95.294118%,96.078432%);fill-opacity:1;" d="M 0 0 C 19.46875 0 38.941406 0 59 0 C 59 16.5 59 33 59 50 C 39.53125 50 20.058594 50 0 50 C 0 33.5 0 17 0 0 Z M 0 0 "/>
<path style=" stroke:none;fill-rule:nonzero;fill:rgb(94.117647%,94.117647%,94.901961%);fill-opacity:1;" d="M 25.238281 13.488281 C 25.917969 13.90625 26.480469 14.390625 27.03125 14.960938 C 27.101562 15.027344 27.171875 15.09375 27.242188 15.164062 C 28.40625 16.386719 28.59375 17.921875 28.570312 19.503906 C 28.515625 21.042969 27.757812 22.53125 26.617188 23.585938 C 24.871094 24.933594 23.160156 25.230469 20.992188 25.066406 C 19.445312 24.773438 18.042969 23.769531 17.152344 22.507812 C 16.238281 20.988281 15.785156 19.464844 16.121094 17.699219 C 16.628906 15.882812 17.738281 14.542969 19.347656 13.546875 C 21.191406 12.636719 23.382812 12.582031 25.238281 13.488281 Z M 25.238281 13.488281 "/>
<path style=" stroke:none;fill-rule:nonzero;fill:rgb(93.725491%,93.725491%,94.509804%);fill-opacity:1;" d="M 38.417969 22.777344 C 38.765625 23.15625 39.105469 23.601562 39.105469 24.125 C 39.589844 24.113281 39.941406 24.097656 40.3125 23.769531 C 40.515625 23.535156 40.707031 23.296875 40.886719 23.046875 C 41.59375 23.109375 42.097656 23.476562 42.671875 23.855469 C 42.660156 23.976562 42.644531 24.101562 42.632812 24.226562 C 42.617188 24.386719 42.601562 24.546875 42.585938 24.714844 C 42.5625 24.953125 42.5625 24.953125 42.539062 25.195312 C 42.535156 25.332031 42.535156 25.46875 42.535156 25.605469 C 42.902344 25.96875 43.136719 25.929688 43.648438 25.960938 C 43.800781 25.96875 43.949219 25.980469 44.105469 25.992188 C 44.277344 26 44.277344 26 44.457031 26.011719 C 44.824219 26.734375 44.910156 27.226562 44.867188 28.03125 C 43.941406 28.570312 43.941406 28.570312 43.632812 28.570312 C 43.636719 29.28125 43.636719 29.28125 43.96875 29.878906 C 44.042969 29.945312 44.121094 30.011719 44.199219 30.078125 C 44.589844 30.425781 44.589844 30.425781 44.617188 30.777344 C 44.382812 31.289062 44.085938 31.746094 43.769531 32.210938 C 43.644531 32.199219 43.519531 32.183594 43.390625 32.171875 C 43.226562 32.15625 43.0625 32.140625 42.894531 32.125 C 42.734375 32.109375 42.570312 32.09375 42.402344 32.078125 C 42.195312 32.078125 42.195312 32.078125 41.984375 32.074219 C 41.617188 32.4375 41.660156 32.667969 41.625 33.171875 C 41.617188 33.316406 41.605469 33.464844 41.59375 33.617188 C 41.589844 33.730469 41.582031 33.84375 41.574219 33.960938 C 41.359375 34.035156 41.144531 34.105469 40.929688 34.171875 C 40.8125 34.210938 40.691406 34.25 40.570312 34.292969 C 40.15625 34.375 39.914062 34.371094 39.515625 34.230469 C 39.382812 33.992188 39.253906 33.75 39.125 33.507812 C 38.960938 33.238281 38.960938 33.238281 38.511719 33.101562 C 37.785156 33.175781 37.496094 33.5625 37.046875 34.097656 C 36.40625 33.917969 35.871094 33.761719 35.398438 33.289062 C 35.347656 32.828125 35.355469 32.390625 35.382812 31.925781 C 35.433594 31.542969 35.433594 31.542969 35.261719 31.265625 C 34.875 31.203125 34.875 31.203125 34.429688 31.183594 C 34.28125 31.171875 34.128906 31.164062 33.972656 31.152344 C 33.855469 31.144531 33.738281 31.140625 33.617188 31.132812 C 33.3125 30.492188 33.140625 29.957031 33.066406 29.246094 C 33.15625 29.199219 33.246094 29.152344 33.335938 29.101562 C 33.6875 28.898438 34 28.703125 34.300781 28.4375 C 34.441406 27.941406 34.441406 27.941406 34.300781 27.492188 C 34.167969 27.40625 34.03125 27.316406 33.890625 27.222656 C 33.890625 27.136719 33.890625 27.046875 33.890625 26.953125 C 33.710938 26.863281 33.527344 26.777344 33.34375 26.683594 C 33.523438 26.0625 33.765625 25.582031 34.164062 25.066406 C 34.578125 24.933594 34.578125 24.933594 34.988281 25.066406 C 35.71875 25.113281 35.71875 25.113281 36.359375 24.796875 C 36.441406 24.410156 36.441406 24.410156 36.453125 23.972656 C 36.464844 23.824219 36.472656 23.675781 36.480469 23.523438 C 36.488281 23.410156 36.492188 23.296875 36.496094 23.179688 C 37.152344 22.867188 37.675781 22.628906 38.417969 22.777344 Z M 38.417969 22.777344 "/>
<path style=" stroke:none;fill-rule:nonzero;fill:rgb(93.333334%,93.333334%,94.117647%);fill-opacity:1;" d="M 21.953125 10.511719 C 22.210938 10.507812 22.46875 10.503906 22.726562 10.503906 C 22.867188 10.503906 23.011719 10.5 23.160156 10.5 C 23.59375 10.511719 23.996094 10.566406 24.421875 10.648438 C 24.492188 10.949219 24.5625 11.253906 24.628906 11.554688 C 24.667969 11.726562 24.707031 11.894531 24.746094 12.066406 C 24.835938 12.535156 24.835938 12.535156 24.835938 13.074219 C 24.980469 13.113281 25.125 13.152344 25.273438 13.191406 C 25.796875 13.34375 25.796875 13.34375 26.113281 13.511719 C 26.648438 13.65625 26.902344 13.460938 27.382812 13.207031 C 28.1875 12.78125 28.1875 12.78125 28.5625 12.878906 C 28.847656 13.097656 29.082031 13.320312 29.320312 13.585938 C 29.402344 13.675781 29.484375 13.765625 29.570312 13.859375 C 29.8125 14.203125 29.90625 14.402344 29.910156 14.824219 C 29.679688 15.183594 29.679688 15.183594 29.363281 15.550781 C 28.898438 16.117188 28.898438 16.117188 28.796875 16.820312 C 28.875 17.035156 28.875 17.035156 28.949219 17.25 C 28.980469 17.386719 29.011719 17.519531 29.042969 17.65625 C 29.191406 18.09375 29.191406 18.09375 29.632812 18.28125 C 29.792969 18.332031 29.953125 18.386719 30.117188 18.4375 C 30.277344 18.492188 30.4375 18.546875 30.601562 18.601562 C 30.804688 18.667969 30.804688 18.667969 31.007812 18.734375 C 31.101562 18.777344 31.191406 18.820312 31.285156 18.867188 C 31.289062 19.175781 31.289062 19.480469 31.292969 19.785156 C 31.292969 19.957031 31.296875 20.125 31.296875 20.300781 C 31.285156 20.753906 31.285156 20.753906 31.148438 21.160156 C 30.765625 21.285156 30.765625 21.285156 30.289062 21.386719 C 30.132812 21.421875 29.976562 21.453125 29.816406 21.488281 C 29.421875 21.554688 29.074219 21.578125 28.675781 21.5625 C 28.636719 21.6875 28.597656 21.808594 28.558594 21.933594 C 28.402344 22.371094 28.402344 22.371094 28.238281 22.648438 C 28.078125 23.023438 28.140625 23.195312 28.265625 23.585938 C 28.410156 23.890625 28.554688 24.191406 28.710938 24.492188 C 28.839844 24.882812 28.816406 25.085938 28.675781 25.472656 C 28.441406 25.734375 28.441406 25.734375 28.152344 25.96875 C 28.058594 26.046875 27.964844 26.125 27.867188 26.207031 C 27.597656 26.402344 27.335938 26.546875 27.03125 26.683594 C 26.910156 26.59375 26.792969 26.507812 26.667969 26.414062 C 26.507812 26.300781 26.351562 26.183594 26.191406 26.070312 C 26.113281 26.011719 26.035156 25.953125 25.953125 25.890625 C 25.558594 25.613281 25.320312 25.46875 24.828125 25.484375 C 24.628906 25.546875 24.628906 25.546875 24.421875 25.605469 C 24.28125 25.632812 24.136719 25.660156 23.988281 25.6875 C 23.523438 25.914062 23.417969 26.140625 23.242188 26.613281 C 23.210938 26.707031 23.179688 26.800781 23.144531 26.894531 C 22.78125 27.894531 22.78125 27.894531 22.640625 28.03125 C 22.394531 28.054688 22.394531 28.054688 22.082031 28.058594 C 21.980469 28.058594 21.878906 28.0625 21.777344 28.0625 C 21.265625 28.019531 20.800781 27.894531 20.308594 27.761719 C 20.285156 27.605469 20.257812 27.449219 20.234375 27.285156 C 20.046875 26.136719 20.046875 26.136719 19.484375 25.140625 C 19.089844 24.898438 18.851562 24.816406 18.386719 24.796875 C 17.9375 24.9375 17.539062 25.089844 17.125 25.308594 C 16.53125 25.621094 16.53125 25.621094 16.171875 25.535156 C 15.859375 25.292969 15.59375 25.042969 15.324219 24.753906 C 15.226562 24.652344 15.128906 24.550781 15.027344 24.445312 C 14.820312 24.125 14.820312 24.125 14.824219 23.789062 C 15.027344 23.269531 15.371094 22.882812 15.722656 22.453125 C 15.972656 22 15.90625 21.78125 15.777344 21.292969 C 15.734375 20.980469 15.6875 20.664062 15.640625 20.351562 C 15.550781 20.324219 15.460938 20.300781 15.371094 20.277344 C 14.691406 20.085938 14.070312 19.878906 13.445312 19.542969 C 13.441406 19.265625 13.441406 18.984375 13.4375 18.707031 C 13.4375 18.554688 13.433594 18.398438 13.433594 18.238281 C 13.445312 17.84375 13.492188 17.5 13.582031 17.117188 C 13.867188 17.070312 14.148438 17.027344 14.433594 16.980469 C 14.589844 16.957031 14.746094 16.929688 14.910156 16.90625 C 15.300781 16.855469 15.660156 16.835938 16.054688 16.847656 C 16.066406 16.75 16.082031 16.652344 16.097656 16.550781 C 16.191406 16.171875 16.191406 16.171875 16.429688 15.871094 C 16.632812 15.433594 16.597656 15.355469 16.449219 14.917969 C 16.363281 14.707031 16.277344 14.496094 16.191406 14.285156 C 16.113281 14.082031 16.035156 13.875 15.960938 13.671875 C 15.898438 13.519531 15.839844 13.363281 15.777344 13.207031 C 16.371094 12.578125 16.921875 12.113281 17.699219 11.726562 C 17.863281 11.859375 17.863281 11.859375 18.03125 12 C 18.90625 12.703125 18.90625 12.703125 19.96875 12.957031 C 20.371094 12.886719 20.746094 12.800781 21.128906 12.667969 C 21.15625 12.59375 21.179688 12.515625 21.207031 12.4375 C 21.425781 11.777344 21.664062 11.144531 21.953125 10.511719 Z M 17.441406 15.078125 C 16.304688 16.445312 15.917969 17.941406 16.054688 19.675781 C 16.285156 21.277344 17.058594 22.855469 18.386719 23.855469 C 20.089844 24.96875 21.589844 25.242188 23.601562 25.066406 C 24.566406 24.867188 25.410156 24.421875 26.207031 23.855469 C 26.289062 23.796875 26.375 23.738281 26.457031 23.679688 C 27.582031 22.824219 28.269531 21.433594 28.539062 20.082031 C 28.628906 18.734375 28.625 17.539062 27.992188 16.308594 C 27.941406 16.210938 27.894531 16.117188 27.84375 16.019531 C 26.929688 14.425781 25.46875 13.503906 23.738281 12.9375 C 21.191406 12.71875 19.238281 13.191406 17.441406 15.078125 Z M 17.441406 15.078125 "/>
<path style=" stroke:none;fill-rule:nonzero;fill:rgb(5.098039%,5.098039%,5.098039%);fill-opacity:1;" d="M 21.40625 9.703125 C 21.789062 9.695312 22.175781 9.691406 22.5625 9.6875 C 22.667969 9.683594 22.777344 9.683594 22.886719 9.679688 C 23.664062 9.671875 24.359375 9.777344 25.109375 9.972656 C 25.144531 10.144531 25.179688 10.316406 25.214844 10.496094 C 25.261719 10.71875 25.308594 10.945312 25.359375 11.167969 C 25.378906 11.28125 25.402344 11.394531 25.425781 11.511719 C 25.449219 11.621094 25.472656 11.730469 25.496094 11.84375 C 25.527344 11.992188 25.527344 11.992188 25.5625 12.144531 C 25.648438 12.449219 25.648438 12.449219 26.070312 12.667969 C 26.808594 12.648438 27.40625 12.304688 28.046875 11.976562 C 28.402344 11.859375 28.402344 11.859375 28.683594 11.941406 C 29.535156 12.542969 30.496094 13.433594 30.871094 14.421875 C 30.828125 14.925781 30.539062 15.261719 30.246094 15.667969 C 29.796875 16.339844 29.667969 16.726562 29.773438 17.519531 C 29.863281 17.542969 29.949219 17.570312 30.039062 17.59375 C 30.753906 17.796875 31.429688 18.027344 32.105469 18.328125 C 32.136719 19.535156 32.113281 20.648438 31.832031 21.832031 C 31.140625 22.097656 30.457031 22.183594 29.722656 22.269531 C 29.347656 22.335938 29.347656 22.335938 29.175781 22.628906 C 28.953125 23.355469 29.335938 23.988281 29.671875 24.617188 C 29.8125 25.050781 29.769531 25.308594 29.636719 25.742188 C 29.039062 26.4375 28.070312 27.339844 27.167969 27.628906 C 26.695312 27.464844 26.300781 27.148438 25.890625 26.871094 C 25.257812 26.46875 24.890625 26.300781 24.148438 26.414062 C 24.125 26.488281 24.101562 26.5625 24.078125 26.636719 C 23.828125 27.398438 23.53125 28.117188 23.1875 28.839844 C 21.925781 28.890625 20.828125 28.800781 19.621094 28.4375 C 19.589844 28.265625 19.5625 28.09375 19.53125 27.914062 C 19.484375 27.691406 19.441406 27.464844 19.398438 27.242188 C 19.378906 27.128906 19.359375 27.015625 19.339844 26.898438 C 19.273438 26.582031 19.207031 26.304688 19.070312 26.011719 C 18.710938 25.738281 18.710938 25.738281 18.25 25.742188 C 17.890625 25.855469 17.601562 25.972656 17.269531 26.136719 C 16.417969 26.554688 16.417969 26.554688 16.023438 26.53125 C 14.957031 26.019531 14.328125 24.796875 13.722656 23.855469 C 13.785156 23.753906 13.851562 23.65625 13.917969 23.554688 C 14.003906 23.421875 14.085938 23.289062 14.175781 23.15625 C 14.261719 23.027344 14.34375 22.894531 14.429688 22.761719 C 14.515625 22.632812 14.597656 22.503906 14.679688 22.371094 C 14.765625 22.257812 14.847656 22.144531 14.9375 22.027344 C 15.125 21.703125 15.125 21.703125 15.046875 21.347656 C 14.722656 20.886719 14.300781 20.761719 13.78125 20.585938 C 12.765625 20.222656 12.765625 20.222656 12.625 20.082031 C 12.554688 18.816406 12.503906 17.621094 13.035156 16.441406 C 13.199219 16.417969 13.367188 16.394531 13.535156 16.371094 C 13.75 16.339844 13.96875 16.308594 14.183594 16.273438 C 14.292969 16.257812 14.402344 16.242188 14.515625 16.230469 C 15.128906 16.152344 15.128906 16.152344 15.578125 15.777344 C 15.746094 15.035156 15.394531 14.421875 15.058594 13.78125 C 14.925781 13.382812 14.949219 13.195312 15.09375 12.804688 C 15.6875 12.085938 16.429688 11.320312 17.289062 10.917969 C 17.9375 10.960938 18.28125 11.132812 18.78125 11.53125 C 19.425781 12.003906 19.789062 12.09375 20.582031 11.996094 C 20.605469 11.910156 20.632812 11.820312 20.65625 11.734375 C 20.691406 11.617188 20.726562 11.5 20.761719 11.378906 C 20.792969 11.265625 20.828125 11.152344 20.863281 11.035156 C 21.015625 10.574219 21.207031 10.144531 21.40625 9.703125 Z M 21.953125 10.511719 C 21.816406 10.820312 21.679688 11.128906 21.542969 11.4375 C 21.484375 11.570312 21.484375 11.570312 21.421875 11.703125 C 21.203125 12.167969 21.203125 12.167969 21.128906 12.667969 C 20.515625 12.878906 19.859375 13.097656 19.230469 12.832031 C 18.679688 12.515625 18.1875 12.128906 17.699219 11.726562 C 16.921875 12.113281 16.371094 12.578125 15.777344 13.207031 C 15.839844 13.34375 15.902344 13.484375 15.96875 13.625 C 16.046875 13.808594 16.128906 13.992188 16.207031 14.175781 C 16.25 14.265625 16.289062 14.359375 16.332031 14.453125 C 16.519531 14.886719 16.625 15.148438 16.5 15.613281 C 16.441406 15.710938 16.386719 15.804688 16.328125 15.902344 C 16.125 16.277344 16.054688 16.414062 16.054688 16.847656 C 15.945312 16.855469 15.835938 16.863281 15.722656 16.871094 C 14.648438 16.953125 14.648438 16.953125 13.582031 17.117188 C 13.453125 17.65625 13.433594 18.15625 13.4375 18.707031 C 13.4375 18.863281 13.441406 19.019531 13.441406 19.183594 C 13.441406 19.300781 13.445312 19.417969 13.445312 19.542969 C 14.179688 19.925781 14.828125 20.179688 15.640625 20.351562 C 15.691406 20.539062 15.742188 20.726562 15.789062 20.914062 C 15.816406 21.019531 15.839844 21.125 15.871094 21.230469 C 15.945312 21.777344 15.863281 22.113281 15.550781 22.574219 C 15.371094 22.800781 15.191406 23.023438 15.011719 23.246094 C 14.789062 23.570312 14.789062 23.570312 14.820312 23.917969 C 14.996094 24.359375 15.25 24.632812 15.582031 24.976562 C 15.75 25.152344 15.75 25.152344 15.925781 25.335938 C 16.058594 25.46875 16.058594 25.46875 16.191406 25.605469 C 16.375 25.546875 16.558594 25.488281 16.738281 25.429688 C 16.851562 25.394531 16.964844 25.359375 17.082031 25.320312 C 17.421875 25.210938 17.421875 25.210938 17.707031 25.0625 C 18.113281 24.863281 18.394531 24.78125 18.847656 24.84375 C 19.265625 25 19.464844 25.132812 19.757812 25.472656 C 20.0625 26.203125 20.183594 26.988281 20.308594 27.761719 C 21.1875 27.996094 21.1875 27.996094 22.089844 28.050781 C 22.195312 28.046875 22.300781 28.042969 22.40625 28.042969 C 22.484375 28.039062 22.5625 28.035156 22.640625 28.03125 C 22.6875 27.921875 22.730469 27.8125 22.78125 27.699219 C 22.839844 27.550781 22.902344 27.40625 22.964844 27.257812 C 23.027344 27.113281 23.085938 26.96875 23.148438 26.820312 C 23.207031 26.6875 23.265625 26.554688 23.324219 26.414062 C 23.367188 26.3125 23.40625 26.210938 23.449219 26.109375 C 23.652344 25.792969 23.839844 25.742188 24.199219 25.632812 C 24.304688 25.597656 24.410156 25.5625 24.519531 25.527344 C 25.234375 25.398438 25.664062 25.765625 26.242188 26.152344 C 26.390625 26.253906 26.535156 26.351562 26.6875 26.453125 C 26.800781 26.53125 26.914062 26.605469 27.03125 26.683594 C 28.023438 26.117188 28.023438 26.117188 28.8125 25.335938 C 28.8125 24.753906 28.660156 24.339844 28.386719 23.835938 C 28.203125 23.496094 28.128906 23.355469 28.136719 22.960938 C 28.292969 22.574219 28.484375 22.207031 28.675781 21.832031 C 28.675781 21.742188 28.675781 21.65625 28.675781 21.5625 C 28.761719 21.558594 28.847656 21.550781 28.9375 21.542969 C 29.699219 21.476562 30.417969 21.394531 31.148438 21.160156 C 31.308594 20.679688 31.296875 20.292969 31.292969 19.785156 C 31.292969 19.613281 31.289062 19.441406 31.289062 19.265625 C 31.285156 19.136719 31.285156 19.003906 31.285156 18.867188 C 31.046875 18.761719 30.808594 18.65625 30.570312 18.546875 C 30.441406 18.488281 30.308594 18.429688 30.171875 18.367188 C 29.78125 18.191406 29.78125 18.191406 29.394531 18.070312 C 29.089844 17.925781 29.089844 17.925781 28.957031 17.6875 C 28.929688 17.550781 28.929688 17.550781 28.898438 17.410156 C 28.878906 17.320312 28.859375 17.230469 28.835938 17.136719 C 28.769531 16.277344 29.199219 15.808594 29.71875 15.160156 C 29.9375 14.839844 29.9375 14.839844 29.910156 14.492188 C 29.734375 14.050781 29.480469 13.777344 29.148438 13.433594 C 29.035156 13.316406 28.921875 13.195312 28.804688 13.074219 C 28.71875 12.984375 28.628906 12.894531 28.539062 12.804688 C 27.953125 12.984375 27.398438 13.15625 26.859375 13.453125 C 26.480469 13.613281 26.480469 13.613281 26.148438 13.519531 C 25.972656 13.433594 25.972656 13.433594 25.796875 13.34375 C 25.476562 13.25 25.15625 13.160156 24.835938 13.074219 C 24.816406 12.898438 24.800781 12.722656 24.785156 12.542969 C 24.710938 11.898438 24.578125 11.277344 24.421875 10.648438 C 23.605469 10.46875 22.785156 10.5 21.953125 10.511719 Z M 21.953125 10.511719 "/>
<path style=" stroke:none;fill-rule:nonzero;fill:rgb(4.705882%,4.705882%,4.705882%);fill-opacity:1;" d="M 38.417969 22.777344 C 38.765625 23.15625 39.105469 23.601562 39.105469 24.125 C 39.589844 24.113281 39.941406 24.097656 40.3125 23.769531 C 40.515625 23.535156 40.707031 23.296875 40.886719 23.046875 C 41.59375 23.109375 42.097656 23.476562 42.671875 23.855469 C 42.660156 23.976562 42.644531 24.101562 42.632812 24.226562 C 42.617188 24.386719 42.601562 24.546875 42.585938 24.714844 C 42.5625 24.953125 42.5625 24.953125 42.539062 25.195312 C 42.535156 25.332031 42.535156 25.46875 42.535156 25.605469 C 42.902344 25.96875 43.136719 25.929688 43.648438 25.960938 C 43.800781 25.96875 43.949219 25.980469 44.105469 25.992188 C 44.277344 26 44.277344 26 44.457031 26.011719 C 44.824219 26.734375 44.910156 27.226562 44.867188 28.03125 C 43.941406 28.570312 43.941406 28.570312 43.632812 28.570312 C 43.636719 29.28125 43.636719 29.28125 43.96875 29.878906 C 44.042969 29.945312 44.121094 30.011719 44.199219 30.078125 C 44.589844 30.425781 44.589844 30.425781 44.617188 30.777344 C 44.382812 31.289062 44.085938 31.746094 43.769531 32.210938 C 43.644531 32.199219 43.519531 32.183594 43.390625 32.171875 C 43.226562 32.15625 43.0625 32.140625 42.894531 32.125 C 42.734375 32.109375 42.570312 32.09375 42.402344 32.078125 C 42.195312 32.078125 42.195312 32.078125 41.984375 32.074219 C 41.617188 32.4375 41.660156 32.667969 41.625 33.171875 C 41.617188 33.316406 41.605469 33.464844 41.59375 33.617188 C 41.589844 33.730469 41.582031 33.84375 41.574219 33.960938 C 41.359375 34.035156 41.144531 34.105469 40.929688 34.171875 C 40.8125 34.210938 40.691406 34.25 40.570312 34.292969 C 40.15625 34.375 39.914062 34.371094 39.515625 34.230469 C 39.382812 33.992188 39.253906 33.75 39.125 33.507812 C 38.960938 33.238281 38.960938 33.238281 38.511719 33.101562 C 37.785156 33.175781 37.496094 33.5625 37.046875 34.097656 C 36.40625 33.917969 35.871094 33.761719 35.398438 33.289062 C 35.347656 32.828125 35.355469 32.390625 35.382812 31.925781 C 35.433594 31.542969 35.433594 31.542969 35.261719 31.265625 C 34.875 31.203125 34.875 31.203125 34.429688 31.183594 C 34.28125 31.171875 34.128906 31.164062 33.972656 31.152344 C 33.855469 31.144531 33.738281 31.140625 33.617188 31.132812 C 33.3125 30.492188 33.140625 29.957031 33.066406 29.246094 C 33.15625 29.199219 33.246094 29.152344 33.335938 29.101562 C 33.6875 28.898438 34 28.703125 34.300781 28.4375 C 34.441406 27.941406 34.441406 27.941406 34.300781 27.492188 C 34.167969 27.40625 34.03125 27.316406 33.890625 27.222656 C 33.890625 27.136719 33.890625 27.046875 33.890625 26.953125 C 33.710938 26.863281 33.527344 26.777344 33.34375 26.683594 C 33.523438 26.0625 33.765625 25.582031 34.164062 25.066406 C 34.578125 24.933594 34.578125 24.933594 34.988281 25.066406 C 35.71875 25.113281 35.71875 25.113281 36.359375 24.796875 C 36.441406 24.410156 36.441406 24.410156 36.453125 23.972656 C 36.464844 23.824219 36.472656 23.675781 36.480469 23.523438 C 36.488281 23.410156 36.492188 23.296875 36.496094 23.179688 C 37.152344 22.867188 37.675781 22.628906 38.417969 22.777344 Z M 37.457031 23.71875 C 37.28125 23.863281 37.28125 23.863281 37.308594 24.191406 C 37.308594 24.328125 37.3125 24.464844 37.3125 24.605469 C 37.3125 24.742188 37.316406 24.875 37.316406 25.015625 C 37.316406 25.121094 37.320312 25.226562 37.320312 25.335938 C 37.164062 25.390625 37.164062 25.390625 37.003906 25.445312 C 36.632812 25.578125 36.632812 25.578125 36.4375 25.828125 C 36.222656 26.011719 36.222656 26.011719 35.824219 26.019531 C 35.675781 26.003906 35.527344 25.988281 35.375 25.96875 C 35.226562 25.953125 35.074219 25.9375 34.921875 25.917969 C 34.808594 25.90625 34.695312 25.890625 34.578125 25.875 C 34.472656 26.195312 34.472656 26.195312 34.441406 26.550781 C 34.574219 26.664062 34.707031 26.777344 34.84375 26.894531 C 35.1875 27.191406 35.257812 27.316406 35.316406 27.769531 C 35.316406 28.175781 35.296875 28.574219 35.261719 28.976562 C 35.101562 29.035156 35.101562 29.035156 34.941406 29.097656 C 34.582031 29.242188 34.324219 29.410156 34.027344 29.648438 C 34.074219 29.828125 34.117188 30.003906 34.164062 30.1875 C 34.265625 30.183594 34.363281 30.179688 34.464844 30.175781 C 35.503906 30.1875 35.503906 30.1875 35.960938 30.554688 C 36.398438 31.132812 36.550781 31.566406 36.480469 32.285156 C 36.445312 32.484375 36.40625 32.6875 36.359375 32.882812 C 36.617188 32.988281 36.617188 32.988281 36.910156 33.019531 C 37.023438 32.886719 37.136719 32.753906 37.253906 32.613281 C 37.546875 32.300781 37.691406 32.21875 38.128906 32.148438 C 39.207031 32.175781 39.207031 32.175781 39.636719 32.597656 C 39.808594 32.867188 39.945312 33.128906 40.066406 33.421875 C 40.40625 33.355469 40.40625 33.355469 40.75 33.289062 C 40.75 33.1875 40.75 33.089844 40.753906 32.988281 C 40.777344 32.324219 40.808594 31.917969 41.207031 31.367188 C 41.835938 30.941406 42.648438 31.152344 43.359375 31.265625 C 43.449219 31.089844 43.539062 30.910156 43.632812 30.726562 C 43.492188 30.628906 43.355469 30.53125 43.210938 30.433594 C 42.886719 30.117188 42.8125 29.949219 42.75 29.5 C 42.789062 28.335938 42.789062 28.335938 43.171875 27.921875 C 43.410156 27.769531 43.660156 27.628906 43.90625 27.492188 C 43.90625 27.316406 43.90625 27.136719 43.90625 26.953125 C 43.804688 26.957031 43.703125 26.957031 43.601562 26.957031 C 42.515625 26.925781 42.515625 26.925781 42.15625 26.601562 C 41.996094 26.367188 41.851562 26.121094 41.710938 25.875 C 41.621094 25.875 41.53125 25.875 41.4375 25.875 C 41.507812 25.628906 41.507812 25.628906 41.582031 25.378906 C 41.703125 24.917969 41.722656 24.589844 41.574219 24.125 C 41.324219 24.144531 41.324219 24.144531 41.027344 24.257812 C 40.933594 24.375 40.84375 24.492188 40.75 24.613281 C 40.273438 24.984375 40.113281 24.988281 39.515625 24.976562 C 38.777344 24.886719 38.777344 24.886719 38.453125 24.546875 C 38.28125 24.25 38.28125 24.25 38.152344 23.949219 C 38.105469 23.875 38.054688 23.796875 38.007812 23.71875 C 37.824219 23.71875 37.644531 23.71875 37.457031 23.71875 Z M 37.457031 23.71875 "/>
<path style=" stroke:none;fill-rule:nonzero;fill:rgb(5.098039%,5.098039%,5.098039%);fill-opacity:1;" d="M 29.242188 32.875 C 29.367188 32.875 29.492188 32.878906 29.621094 32.878906 C 29.765625 32.882812 29.765625 32.882812 29.910156 32.882812 C 30.324219 33.660156 30.324219 33.660156 30.324219 33.960938 C 30.867188 33.828125 31.410156 33.695312 31.96875 33.558594 C 32.285156 33.914062 32.605469 34.269531 32.929688 34.636719 C 32.796875 34.851562 32.796875 34.851562 32.664062 35.074219 C 32.464844 35.417969 32.308594 35.722656 32.246094 36.117188 C 32.324219 36.15625 32.402344 36.191406 32.484375 36.226562 C 32.796875 36.390625 33.0625 36.582031 33.34375 36.792969 C 33.277344 37.015625 33.210938 37.234375 33.144531 37.457031 C 33.109375 37.582031 33.070312 37.703125 33.035156 37.832031 C 32.929688 38.140625 32.929688 38.140625 32.792969 38.273438 C 32.289062 38.292969 31.789062 38.28125 31.285156 38.273438 C 31.238281 38.765625 31.191406 39.253906 31.148438 39.757812 C 30.75 39.886719 30.5 39.90625 30.089844 39.902344 C 29.925781 39.898438 29.925781 39.898438 29.753906 39.898438 C 29.671875 39.894531 29.585938 39.894531 29.5 39.890625 C 29.320312 39.582031 29.136719 39.269531 28.949219 38.949219 C 28.398438 39.023438 27.851562 39.105469 27.304688 39.21875 C 26.992188 38.925781 26.710938 38.636719 26.480469 38.273438 C 26.550781 37.855469 26.550781 37.855469 26.753906 37.464844 C 26.808594 37.339844 26.859375 37.210938 26.910156 37.078125 C 26.949219 36.984375 26.988281 36.890625 27.03125 36.792969 C 26.960938 36.746094 26.886719 36.699219 26.816406 36.648438 C 26.535156 36.441406 26.296875 36.25 26.070312 35.984375 C 26.058594 35.371094 26.199219 35.050781 26.480469 34.5 C 27.023438 34.5 27.566406 34.5 28.128906 34.5 C 28.125 34.355469 28.121094 34.210938 28.121094 34.0625 C 28.132812 33.359375 28.132812 33.359375 28.265625 33.019531 C 28.613281 32.847656 28.855469 32.871094 29.242188 32.875 Z M 29.242188 32.875 "/>
<path style=" stroke:none;fill-rule:nonzero;fill:rgb(5.098039%,5.098039%,5.098039%);fill-opacity:1;" d="M 25.238281 13.488281 C 25.917969 13.90625 26.480469 14.390625 27.03125 14.960938 C 27.101562 15.027344 27.171875 15.09375 27.242188 15.164062 C 28.40625 16.386719 28.59375 17.921875 28.570312 19.503906 C 28.515625 21.042969 27.757812 22.53125 26.617188 23.585938 C 24.871094 24.933594 23.160156 25.230469 20.992188 25.066406 C 19.445312 24.773438 18.042969 23.769531 17.152344 22.507812 C 16.238281 20.988281 15.785156 19.464844 16.121094 17.699219 C 16.628906 15.882812 17.738281 14.542969 19.347656 13.546875 C 21.191406 12.636719 23.382812 12.582031 25.238281 13.488281 Z M 17.835938 15.902344 C 17.566406 16.335938 17.351562 16.78125 17.152344 17.25 C 17.089844 17.378906 17.03125 17.507812 16.972656 17.636719 C 16.644531 19.101562 16.914062 20.535156 17.65625 21.835938 C 18.480469 23.03125 19.566406 23.875 20.992188 24.257812 C 22.667969 24.492188 24.246094 24.3125 25.628906 23.308594 C 26.6875 22.425781 27.558594 21.3125 27.757812 19.921875 C 27.777344 19.621094 27.78125 19.324219 27.777344 19.019531 C 27.773438 18.914062 27.773438 18.808594 27.773438 18.695312 C 27.730469 17.21875 27.125 16.15625 26.089844 15.105469 C 24.796875 13.917969 23.402344 13.679688 21.683594 13.707031 C 20.121094 13.78125 18.808594 14.753906 17.835938 15.902344 Z M 17.835938 15.902344 "/>
<path style=" stroke:none;fill-rule:nonzero;fill:rgb(3.921569%,3.921569%,3.921569%);fill-opacity:1;" d="M 22.089844 14.824219 C 22.320312 14.863281 22.550781 14.90625 22.777344 14.960938 C 22.777344 15.40625 22.777344 15.847656 22.777344 16.308594 C 22.917969 16.316406 23.058594 16.324219 23.207031 16.332031 C 23.863281 16.46875 24.085938 16.660156 24.558594 17.117188 C 24.746094 17.480469 24.707031 17.789062 24.699219 18.195312 C 24.441406 18.277344 24.441406 18.277344 24.148438 18.328125 C 23.875 18.058594 23.875 18.058594 23.847656 17.796875 C 23.75 17.460938 23.75 17.460938 23.25 17.285156 C 23.09375 17.230469 22.9375 17.171875 22.777344 17.117188 C 22.777344 17.695312 22.777344 18.273438 22.777344 18.867188 C 23.003906 18.914062 23.230469 18.957031 23.460938 19.003906 C 23.910156 19.191406 24.3125 19.40625 24.621094 19.785156 C 24.738281 20.230469 24.753906 20.566406 24.699219 21.023438 C 24.226562 21.777344 23.765625 21.980469 22.914062 22.238281 C 22.867188 22.59375 22.824219 22.949219 22.777344 23.316406 C 22.550781 23.367188 22.320312 23.410156 22.089844 23.449219 C 21.953125 23.316406 21.953125 23.316406 21.941406 23.035156 C 21.941406 22.925781 21.941406 22.816406 21.945312 22.699219 C 21.945312 22.589844 21.949219 22.476562 21.949219 22.363281 C 21.949219 22.277344 21.953125 22.191406 21.953125 22.101562 C 21.8125 22.101562 21.671875 22.097656 21.523438 22.09375 C 20.902344 21.945312 20.703125 21.765625 20.320312 21.285156 C 20.109375 20.917969 20.109375 20.625 20.167969 20.214844 C 20.425781 20.132812 20.425781 20.132812 20.71875 20.082031 C 20.992188 20.351562 20.992188 20.351562 21.105469 20.6875 C 21.261719 21.109375 21.261719 21.109375 21.953125 21.292969 C 21.953125 20.714844 21.953125 20.136719 21.953125 19.542969 C 21.683594 19.496094 21.410156 19.453125 21.128906 19.40625 C 20.730469 19.171875 20.382812 18.878906 20.167969 18.464844 C 20.105469 17.835938 20.066406 17.433594 20.476562 16.929688 C 21.011719 16.429688 21.214844 16.308594 21.953125 16.308594 C 21.953125 16.210938 21.949219 16.117188 21.949219 16.015625 C 21.945312 15.832031 21.945312 15.832031 21.945312 15.640625 C 21.941406 15.519531 21.941406 15.394531 21.941406 15.265625 C 21.953125 14.960938 21.953125 14.960938 22.089844 14.824219 Z M 22.089844 14.824219 "/>
<path style=" stroke:none;fill-rule:nonzero;fill:rgb(4.705882%,4.705882%,4.705882%);fill-opacity:1;" d="M 39.945312 26.566406 C 40.484375 26.914062 40.871094 27.324219 41.164062 27.898438 C 41.246094 28.699219 41.148438 29.164062 40.667969 29.824219 C 40.296875 30.265625 40.023438 30.429688 39.441406 30.5 C 38.804688 30.527344 38.378906 30.503906 37.800781 30.230469 C 37.34375 29.816406 37.082031 29.464844 36.980469 28.855469 C 36.96875 27.613281 36.96875 27.613281 37.339844 27.148438 C 38.167969 26.457031 38.886719 26.191406 39.945312 26.566406 Z M 39.945312 26.566406 "/>
<path style=" stroke:none;fill-rule:nonzero;fill:rgb(92.54902%,92.54902%,93.333334%);fill-opacity:1;" d="M 28.949219 33.691406 C 29.085938 33.691406 29.222656 33.691406 29.363281 33.691406 C 29.433594 33.84375 29.503906 34 29.578125 34.15625 C 29.824219 34.574219 29.867188 34.621094 30.367188 34.769531 C 30.871094 34.769531 31.335938 34.726562 31.832031 34.636719 C 31.789062 34.734375 31.746094 34.832031 31.703125 34.929688 C 31.507812 35.441406 31.371094 35.796875 31.515625 36.335938 C 31.714844 36.691406 31.914062 36.835938 32.246094 37.0625 C 32.246094 37.152344 32.246094 37.238281 32.246094 37.332031 C 32.117188 37.339844 32.117188 37.339844 31.988281 37.347656 C 31.820312 37.359375 31.820312 37.359375 31.652344 37.375 C 31.542969 37.382812 31.433594 37.390625 31.320312 37.398438 C 30.945312 37.480469 30.824219 37.570312 30.597656 37.871094 C 30.488281 38.175781 30.488281 38.175781 30.433594 38.503906 C 30.402344 38.664062 30.402344 38.664062 30.367188 38.832031 C 30.347656 38.957031 30.347656 38.957031 30.324219 39.082031 C 30.121094 39.015625 30.121094 39.015625 29.910156 38.949219 C 29.859375 38.816406 29.804688 38.683594 29.75 38.542969 C 29.53125 38.085938 29.53125 38.085938 28.976562 38.003906 C 28.464844 37.976562 28.054688 38.078125 27.578125 38.273438 C 27.652344 37.820312 27.722656 37.589844 27.992188 37.195312 C 28 36.882812 28.003906 36.566406 27.992188 36.253906 C 27.867188 36.195312 27.867188 36.195312 27.742188 36.136719 C 27.441406 35.984375 27.441406 35.984375 27.03125 35.714844 C 27.03125 35.625 27.03125 35.535156 27.03125 35.445312 C 27.484375 35.445312 27.9375 35.445312 28.402344 35.445312 C 28.402344 35.355469 28.402344 35.265625 28.402344 35.175781 C 28.539062 35.085938 28.675781 34.996094 28.8125 34.90625 C 28.894531 34.609375 28.894531 34.609375 28.910156 34.28125 C 28.917969 34.171875 28.925781 34.0625 28.9375 33.949219 C 28.941406 33.863281 28.945312 33.78125 28.949219 33.691406 Z M 28.949219 33.691406 "/>
<path style=" stroke:none;fill-rule:nonzero;fill:rgb(93.333334%,93.333334%,94.117647%);fill-opacity:1;" d="M 39.363281 27.304688 C 39.652344 27.359375 39.652344 27.359375 40.003906 27.550781 C 40.300781 28.066406 40.324219 28.535156 40.203125 29.109375 C 39.832031 29.5625 39.613281 29.636719 39.027344 29.707031 C 38.304688 29.617188 38.304688 29.617188 38.007812 29.246094 C 37.824219 28.644531 37.796875 28.195312 38.058594 27.621094 C 38.511719 27.289062 38.808594 27.269531 39.363281 27.304688 Z M 39.363281 27.304688 "/>
<path style=" stroke:none;fill-rule:nonzero;fill:rgb(3.137255%,3.137255%,3.137255%);fill-opacity:1;" d="M 31.96875 40.429688 C 32.738281 40.429688 33.507812 40.429688 34.300781 40.429688 C 34.109375 40.90625 33.921875 41.3125 33.667969 41.753906 C 33.605469 41.859375 33.546875 41.964844 33.480469 42.078125 C 33.4375 42.15625 33.390625 42.234375 33.34375 42.316406 C 33.207031 42.273438 33.070312 42.230469 32.929688 42.183594 C 32.886719 42.09375 32.839844 42.003906 32.792969 41.914062 C 32.519531 41.914062 32.25 41.914062 31.96875 41.914062 C 31.925781 41.691406 31.878906 41.46875 31.832031 41.238281 C 31.96875 41.152344 32.105469 41.0625 32.246094 40.96875 C 32.152344 40.792969 32.0625 40.613281 31.96875 40.429688 Z M 31.96875 40.429688 "/>
<path style=" stroke:none;fill-rule:nonzero;fill:rgb(8.627451%,8.627451%,8.627451%);fill-opacity:1;" d="M 11.800781 22.777344 C 11.914062 23.039062 12.027344 23.304688 12.144531 23.566406 C 12.207031 23.714844 12.269531 23.863281 12.335938 24.011719 C 12.484375 24.394531 12.484375 24.394531 12.484375 24.664062 C 12.214844 24.753906 11.941406 24.839844 11.664062 24.933594 C 11.542969 24.671875 11.425781 24.410156 11.3125 24.148438 C 11.246094 24.003906 11.179688 23.859375 11.113281 23.707031 C 10.976562 23.316406 10.976562 23.316406 11.113281 22.910156 C 11.527344 22.777344 11.527344 22.777344 11.800781 22.777344 Z M 11.800781 22.777344 "/>
<path style=" stroke:none;fill-rule:nonzero;fill:rgb(9.019608%,9.019608%,9.019608%);fill-opacity:1;" d="M 34.027344 15.230469 C 34.097656 15.464844 34.164062 15.699219 34.234375 15.9375 C 34.273438 16.066406 34.308594 16.199219 34.347656 16.335938 C 34.441406 16.710938 34.441406 16.710938 34.441406 17.25 C 34.167969 17.25 33.894531 17.25 33.617188 17.25 C 33.546875 17.039062 33.476562 16.824219 33.410156 16.609375 C 33.371094 16.492188 33.335938 16.371094 33.292969 16.25 C 33.203125 15.902344 33.203125 15.902344 33.203125 15.363281 C 33.617188 15.230469 33.617188 15.230469 34.027344 15.230469 Z M 34.027344 15.230469 "/>
<path style=" stroke:none;fill-rule:nonzero;fill:rgb(7.450981%,7.450981%,7.450981%);fill-opacity:1;" d="M 21.953125 30.1875 C 22.632812 30.1875 23.3125 30.1875 24.011719 30.1875 C 24.011719 30.457031 24.011719 30.722656 24.011719 30.996094 C 23.332031 30.996094 22.652344 30.996094 21.953125 30.996094 C 21.953125 30.730469 21.953125 30.464844 21.953125 30.1875 Z M 21.953125 30.1875 "/>
<path style=" stroke:none;fill-rule:nonzero;fill:rgb(5.882353%,5.882353%,5.882353%);fill-opacity:1;" d="M 45.828125 27.492188 C 46.097656 27.492188 46.371094 27.492188 46.652344 27.492188 C 46.652344 28.160156 46.652344 28.828125 46.652344 29.515625 C 46.378906 29.515625 46.109375 29.515625 45.828125 29.515625 C 45.828125 28.847656 45.828125 28.179688 45.828125 27.492188 Z M 45.828125 27.492188 "/>
<path style=" stroke:none;fill-rule:nonzero;fill:rgb(8.235294%,8.235294%,8.235294%);fill-opacity:1;" d="M 41.164062 21.160156 C 41.691406 21.242188 42.105469 21.398438 42.578125 21.640625 C 42.699219 21.699219 42.820312 21.761719 42.945312 21.824219 C 43.035156 21.871094 43.128906 21.917969 43.222656 21.96875 C 43.015625 22.300781 43.015625 22.300781 42.808594 22.640625 C 42.71875 22.605469 42.628906 22.570312 42.535156 22.53125 C 42.035156 22.335938 41.53125 22.152344 41.027344 21.96875 C 41.070312 21.699219 41.117188 21.433594 41.164062 21.160156 Z M 41.164062 21.160156 "/>
<path style=" stroke:none;fill-rule:nonzero;fill:rgb(8.627451%,8.627451%,8.627451%);fill-opacity:1;" d="M 10.976562 14.691406 C 11.203125 14.734375 11.429688 14.777344 11.664062 14.824219 C 11.828125 15.3125 11.75 15.507812 11.601562 15.996094 C 11.5625 16.128906 11.523438 16.261719 11.484375 16.402344 C 11.453125 16.503906 11.421875 16.605469 11.386719 16.710938 C 11.117188 16.710938 10.84375 16.710938 10.566406 16.710938 C 10.671875 15.289062 10.671875 15.289062 10.976562 14.691406 Z M 10.976562 14.691406 "/>
<path style=" stroke:none;fill-rule:nonzero;fill:rgb(7.058824%,7.058824%,7.058824%);fill-opacity:1;" d="M 14.132812 10.109375 C 14.3125 10.152344 14.496094 10.195312 14.679688 10.242188 C 14.777344 10.480469 14.777344 10.480469 14.820312 10.78125 C 14.625 11.03125 14.625 11.03125 14.355469 11.269531 C 13.984375 11.59375 13.984375 11.59375 13.722656 11.996094 C 13.539062 11.90625 13.359375 11.816406 13.171875 11.726562 C 13.171875 11.109375 13.242188 11.042969 13.652344 10.613281 C 13.742188 10.519531 13.832031 10.421875 13.921875 10.324219 C 14.027344 10.21875 14.027344 10.21875 14.132812 10.109375 Z M 14.132812 10.109375 "/>
<path style=" stroke:none;fill-rule:nonzero;fill:rgb(6.666667%,6.666667%,6.666667%);fill-opacity:1;" d="M 38.714844 35.296875 C 38.980469 35.300781 38.980469 35.300781 39.25 35.300781 C 39.425781 35.304688 39.605469 35.304688 39.785156 35.304688 C 39.925781 35.308594 40.0625 35.308594 40.203125 35.308594 C 40.203125 35.578125 40.203125 35.84375 40.203125 36.117188 C 39.523438 36.117188 38.84375 36.117188 38.144531 36.117188 C 38.144531 35.3125 38.144531 35.3125 38.714844 35.296875 Z M 38.714844 35.296875 "/>
<path style=" stroke:none;fill-rule:nonzero;fill:rgb(7.450981%,7.450981%,7.450981%);fill-opacity:1;" d="M 44.457031 32.613281 C 44.796875 32.746094 44.796875 32.746094 45.140625 32.882812 C 45.066406 33.398438 44.839844 33.636719 44.464844 33.996094 C 44.367188 34.089844 44.269531 34.1875 44.167969 34.285156 C 43.90625 34.5 43.90625 34.5 43.632812 34.5 C 43.359375 34.097656 43.359375 34.097656 43.359375 33.691406 C 43.675781 33.355469 43.675781 33.355469 44.042969 33.019531 C 44.125 32.9375 44.207031 32.859375 44.292969 32.773438 C 44.347656 32.722656 44.402344 32.667969 44.457031 32.613281 Z M 44.457031 32.613281 "/>
<path style=" stroke:none;fill-rule:nonzero;fill:rgb(6.666667%,6.666667%,7.058824%);fill-opacity:1;" d="M 31.285156 30.996094 C 32.0625 31.1875 32.589844 31.589844 33.203125 32.074219 C 33.070312 32.253906 32.933594 32.429688 32.792969 32.613281 C 32.203125 32.402344 31.6875 32.117188 31.148438 31.804688 C 31.191406 31.539062 31.238281 31.273438 31.285156 30.996094 Z M 31.285156 30.996094 "/>
<path style=" stroke:none;fill-rule:nonzero;fill:rgb(7.843138%,7.843138%,7.843138%);fill-opacity:1;" d="M 28.402344 30.726562 C 29.082031 30.726562 29.761719 30.726562 30.460938 30.726562 C 30.460938 30.949219 30.460938 31.171875 30.460938 31.402344 C 30.324219 31.535156 30.324219 31.535156 29.890625 31.550781 C 29.625 31.546875 29.625 31.546875 29.355469 31.542969 C 29.175781 31.542969 29 31.542969 28.816406 31.542969 C 28.679688 31.539062 28.542969 31.539062 28.402344 31.535156 C 28.402344 31.269531 28.402344 31.003906 28.402344 30.726562 Z M 28.402344 30.726562 "/>
<path style=" stroke:none;fill-rule:nonzero;fill:rgb(7.450981%,7.450981%,7.450981%);fill-opacity:1;" d="M 25.933594 7.546875 C 26.597656 7.628906 27.121094 7.789062 27.714844 8.085938 C 27.761719 8.21875 27.808594 8.351562 27.851562 8.492188 C 27.71875 8.691406 27.71875 8.691406 27.578125 8.894531 C 27.359375 8.832031 27.140625 8.765625 26.917969 8.699219 C 26.796875 8.664062 26.671875 8.628906 26.546875 8.59375 C 26.296875 8.515625 26.046875 8.4375 25.796875 8.355469 C 25.839844 8.089844 25.886719 7.820312 25.933594 7.546875 Z M 25.933594 7.546875 "/>
<path style=" stroke:none;fill-rule:nonzero;fill:rgb(7.843138%,7.843138%,7.843138%);fill-opacity:1;" d="M 23.050781 7.007812 C 23.808594 6.980469 24.390625 7.042969 25.109375 7.277344 C 25.109375 7.5 25.109375 7.722656 25.109375 7.953125 C 24.429688 7.90625 23.75 7.863281 23.050781 7.816406 C 23.050781 7.550781 23.050781 7.28125 23.050781 7.007812 Z M 23.050781 7.007812 "/>
<path style=" stroke:none;fill-rule:nonzero;fill:rgb(6.666667%,6.666667%,6.666667%);fill-opacity:1;" d="M 29.089844 41.375 C 29.765625 41.375 30.445312 41.375 31.148438 41.375 C 31.148438 41.640625 31.148438 41.910156 31.148438 42.183594 C 30.855469 42.1875 30.5625 42.191406 30.273438 42.191406 C 30.109375 42.191406 29.945312 42.195312 29.78125 42.195312 C 29.363281 42.183594 29.363281 42.183594 29.089844 42.046875 C 29.089844 41.824219 29.089844 41.605469 29.089844 41.375 Z M 29.089844 41.375 "/>
<path style=" stroke:none;fill-rule:nonzero;fill:rgb(6.27451%,6.27451%,6.27451%);fill-opacity:1;" d="M 26.753906 40.160156 C 27.304688 40.429688 27.851562 40.699219 28.402344 40.96875 C 28.3125 41.238281 28.222656 41.503906 28.128906 41.777344 C 27.472656 41.519531 26.921875 41.234375 26.34375 40.835938 C 26.601562 40.3125 26.601562 40.3125 26.753906 40.160156 Z M 26.753906 40.160156 "/>
<path style=" stroke:none;fill-rule:nonzero;fill:rgb(7.058824%,7.058824%,7.058824%);fill-opacity:1;" d="M 28.996094 28.34375 C 29.070312 28.375 29.148438 28.40625 29.226562 28.4375 C 29.269531 28.613281 29.316406 28.792969 29.363281 28.976562 C 29.117188 29.132812 28.871094 29.289062 28.625 29.449219 C 28.488281 29.535156 28.351562 29.621094 28.210938 29.710938 C 27.851562 29.917969 27.851562 29.917969 27.578125 29.917969 C 27.488281 29.652344 27.398438 29.386719 27.304688 29.109375 C 27.519531 28.972656 27.738281 28.832031 27.957031 28.699219 C 28.078125 28.621094 28.199219 28.542969 28.324219 28.464844 C 28.675781 28.300781 28.675781 28.300781 28.996094 28.34375 Z M 28.996094 28.34375 "/>
<path style=" stroke:none;fill-rule:nonzero;fill:rgb(7.058824%,7.058824%,7.058824%);fill-opacity:1;" d="M 14.542969 27.222656 C 14.742188 27.347656 14.9375 27.476562 15.136719 27.601562 C 15.246094 27.671875 15.355469 27.742188 15.46875 27.816406 C 15.742188 28.007812 15.964844 28.195312 16.191406 28.4375 C 16.054688 28.613281 15.917969 28.792969 15.777344 28.976562 C 15.097656 28.773438 14.648438 28.363281 14.132812 27.898438 C 14.390625 27.375 14.390625 27.375 14.542969 27.222656 Z M 14.542969 27.222656 "/>
<path style=" stroke:none;fill-rule:nonzero;fill:rgb(6.666667%,6.666667%,7.058824%);fill-opacity:1;" d="M 32.519531 24.257812 C 32.859375 24.390625 32.859375 24.390625 33.203125 24.527344 C 32.996094 25.199219 32.578125 25.640625 32.105469 26.144531 C 31.925781 26.054688 31.746094 25.96875 31.558594 25.875 C 31.558594 25.257812 31.628906 25.195312 32.039062 24.765625 C 32.128906 24.667969 32.214844 24.574219 32.308594 24.476562 C 32.414062 24.367188 32.414062 24.367188 32.519531 24.257812 Z M 32.519531 24.257812 "/>
<path style=" stroke:none;fill-rule:nonzero;fill:rgb(6.666667%,6.666667%,6.666667%);fill-opacity:1;" d="M 28.675781 8.625 C 29.273438 8.945312 29.804688 9.269531 30.324219 9.703125 C 30.234375 9.882812 30.140625 10.058594 30.050781 10.242188 C 29.417969 10.242188 29.316406 10.148438 28.847656 9.769531 C 28.738281 9.683594 28.628906 9.597656 28.515625 9.503906 C 28.433594 9.4375 28.351562 9.371094 28.265625 9.300781 C 28.402344 9.078125 28.535156 8.855469 28.675781 8.625 Z M 28.675781 8.625 "/>
<path style=" stroke:none;fill-rule:nonzero;fill:rgb(6.666667%,6.666667%,6.666667%);fill-opacity:1;" d="M 16.601562 8.355469 C 16.808594 8.53125 16.808594 8.53125 17.015625 8.761719 C 17.015625 8.894531 17.015625 9.027344 17.015625 9.164062 C 16.722656 9.410156 16.722656 9.410156 16.34375 9.660156 C 16.160156 9.789062 16.160156 9.789062 15.96875 9.914062 C 15.640625 10.109375 15.640625 10.109375 15.367188 10.109375 C 15.09375 9.703125 15.09375 9.703125 15.09375 9.300781 C 15.421875 9.054688 15.421875 9.054688 15.847656 8.800781 C 16.058594 8.675781 16.058594 8.675781 16.273438 8.546875 C 16.382812 8.484375 16.488281 8.421875 16.601562 8.355469 Z M 16.601562 8.355469 "/>
<path style=" stroke:none;fill-rule:nonzero;fill:rgb(5.882353%,5.882353%,5.882353%);fill-opacity:1;" d="M 23.875 35.578125 C 24.144531 35.578125 24.417969 35.578125 24.699219 35.578125 C 24.742188 36.203125 24.789062 36.824219 24.835938 37.464844 C 24.609375 37.511719 24.382812 37.554688 24.148438 37.601562 C 23.859375 36.910156 23.84375 36.3125 23.875 35.578125 Z M 23.875 35.578125 "/>
<path style=" stroke:none;fill-rule:nonzero;fill:rgb(6.27451%,6.27451%,6.27451%);fill-opacity:1;" d="M 33.617188 32.75 C 33.890625 32.75 33.890625 32.75 34.214844 33.042969 C 34.539062 33.382812 34.835938 33.730469 35.125 34.097656 C 34.945312 34.273438 34.761719 34.453125 34.578125 34.636719 C 34.125 34.234375 33.671875 33.835938 33.203125 33.421875 C 33.480469 32.882812 33.480469 32.882812 33.617188 32.75 Z M 33.617188 32.75 "/>
<path style=" stroke:none;fill-rule:nonzero;fill:rgb(6.666667%,6.666667%,6.666667%);fill-opacity:1;" d="M 27.578125 31.132812 C 27.625 31.398438 27.667969 31.664062 27.714844 31.941406 C 27.5 32.082031 27.28125 32.222656 27.066406 32.363281 C 26.945312 32.441406 26.824219 32.519531 26.699219 32.597656 C 26.34375 32.75 26.34375 32.75 26.023438 32.640625 C 25.949219 32.585938 25.875 32.535156 25.796875 32.480469 C 25.820312 32.238281 25.820312 32.238281 25.933594 31.941406 C 26.238281 31.710938 26.238281 31.710938 26.609375 31.503906 C 26.792969 31.398438 26.792969 31.398438 26.984375 31.289062 C 27.304688 31.132812 27.304688 31.132812 27.578125 31.132812 Z M 27.578125 31.132812 "/>
<path style=" stroke:none;fill-rule:nonzero;fill:rgb(7.450981%,7.450981%,7.450981%);fill-opacity:1;" d="M 45.554688 30.1875 C 45.960938 30.253906 45.960938 30.253906 46.375 30.324219 C 46.3125 31.09375 46.109375 31.558594 45.691406 32.210938 C 45.351562 32.078125 45.351562 32.078125 45.003906 31.941406 C 45.070312 31.722656 45.136719 31.507812 45.203125 31.292969 C 45.238281 31.171875 45.273438 31.050781 45.3125 30.925781 C 45.390625 30.679688 45.46875 30.433594 45.554688 30.1875 Z M 45.554688 30.1875 "/>
<path style=" stroke:none;fill-rule:nonzero;fill:rgb(7.843138%,7.843138%,7.843138%);fill-opacity:1;" d="M 19.347656 29.917969 C 19.5625 29.9375 19.78125 29.957031 20 29.976562 C 20.121094 29.988281 20.238281 30 20.363281 30.011719 C 20.675781 30.050781 20.964844 30.105469 21.265625 30.1875 C 21.265625 30.457031 21.265625 30.722656 21.265625 30.996094 C 19.820312 30.890625 19.820312 30.890625 19.210938 30.59375 C 19.253906 30.371094 19.300781 30.148438 19.347656 29.917969 Z M 19.347656 29.917969 "/>
<path style=" stroke:none;fill-rule:nonzero;fill:rgb(5.882353%,5.882353%,6.27451%);fill-opacity:1;" d="M 26.753906 29.648438 C 26.800781 29.871094 26.847656 30.09375 26.894531 30.324219 C 26.652344 30.390625 26.414062 30.457031 26.171875 30.527344 C 26.039062 30.5625 25.90625 30.601562 25.765625 30.640625 C 25.382812 30.726562 25.382812 30.726562 24.835938 30.726562 C 24.835938 30.460938 24.835938 30.195312 24.835938 29.917969 C 25.078125 29.847656 25.320312 29.777344 25.5625 29.707031 C 25.699219 29.667969 25.835938 29.628906 25.972656 29.589844 C 26.34375 29.515625 26.34375 29.515625 26.753906 29.648438 Z M 26.753906 29.648438 "/>
<path style=" stroke:none;fill-rule:nonzero;fill:rgb(6.27451%,6.27451%,6.27451%);fill-opacity:1;" d="M 16.738281 28.839844 C 17.40625 28.921875 17.9375 29.207031 18.523438 29.515625 C 18.476562 29.78125 18.433594 30.046875 18.386719 30.324219 C 17.699219 30.117188 17.066406 29.914062 16.464844 29.515625 C 16.554688 29.292969 16.644531 29.070312 16.738281 28.839844 Z M 16.738281 28.839844 "/>
<path style=" stroke:none;fill-rule:nonzero;fill:rgb(6.666667%,6.666667%,7.058824%);fill-opacity:1;" d="M 31.039062 26.457031 C 31.121094 26.488281 31.199219 26.519531 31.285156 26.550781 C 31.285156 27.195312 31.167969 27.277344 30.734375 27.730469 C 30.582031 27.890625 30.582031 27.890625 30.425781 28.054688 C 30.347656 28.136719 30.269531 28.21875 30.1875 28.300781 C 30.003906 28.167969 29.824219 28.035156 29.636719 27.898438 C 29.71875 27.425781 29.890625 27.183594 30.230469 26.84375 C 30.308594 26.761719 30.390625 26.675781 30.476562 26.589844 C 30.734375 26.414062 30.734375 26.414062 31.039062 26.457031 Z M 31.039062 26.457031 "/>
<path style=" stroke:none;fill-rule:nonzero;fill:rgb(6.27451%,6.27451%,6.27451%);fill-opacity:1;" d="M 12.761719 25.203125 C 13.207031 25.628906 13.613281 26.066406 13.996094 26.550781 C 13.90625 26.726562 13.8125 26.90625 13.722656 27.089844 C 13.308594 27.089844 13.308594 27.089844 13.0625 26.867188 C 12.980469 26.769531 12.898438 26.675781 12.8125 26.574219 C 12.726562 26.480469 12.644531 26.382812 12.558594 26.285156 C 12.347656 26.011719 12.347656 26.011719 12.210938 25.605469 C 12.394531 25.472656 12.574219 25.339844 12.761719 25.203125 Z M 12.761719 25.203125 "/>
<path style=" stroke:none;fill-rule:nonzero;fill:rgb(6.27451%,6.27451%,6.666667%);fill-opacity:1;" d="M 45.828125 24.796875 C 45.941406 25.0625 46.058594 25.324219 46.171875 25.589844 C 46.265625 25.808594 46.265625 25.808594 46.363281 26.035156 C 46.515625 26.414062 46.515625 26.414062 46.515625 26.683594 C 46.242188 26.730469 45.96875 26.773438 45.691406 26.820312 C 45.59375 26.605469 45.5 26.394531 45.40625 26.179688 C 45.355469 26.058594 45.300781 25.941406 45.25 25.820312 C 45.136719 25.449219 45.125 25.285156 45.277344 24.933594 C 45.554688 24.796875 45.554688 24.796875 45.828125 24.796875 Z M 45.828125 24.796875 "/>
<path style=" stroke:none;fill-rule:nonzero;fill:rgb(5.882353%,5.882353%,5.882353%);fill-opacity:1;" d="M 38.28125 20.890625 C 38.546875 20.886719 38.8125 20.882812 39.078125 20.882812 C 39.226562 20.878906 39.375 20.878906 39.527344 20.875 C 39.929688 20.890625 39.929688 20.890625 40.339844 21.023438 C 40.339844 21.246094 40.339844 21.46875 40.339844 21.699219 C 39.660156 21.699219 38.980469 21.699219 38.28125 21.699219 C 38.28125 21.429688 38.28125 21.164062 38.28125 20.890625 Z M 38.28125 20.890625 "/>
<path style=" stroke:none;fill-rule:nonzero;fill:rgb(7.058824%,7.058824%,7.058824%);fill-opacity:1;" d="M 30.871094 10.378906 C 31.898438 11.207031 31.898438 11.207031 32.246094 11.726562 C 32.132812 11.984375 32.132812 11.984375 31.96875 12.265625 C 31.832031 12.308594 31.699219 12.351562 31.558594 12.398438 C 31.195312 11.953125 30.832031 11.507812 30.460938 11.050781 C 30.734375 10.511719 30.734375 10.511719 30.871094 10.378906 Z M 30.871094 10.378906 "/>
<path style=" stroke:none;fill-rule:nonzero;fill:rgb(5.882353%,5.882353%,5.882353%);fill-opacity:1;" d="M 24.972656 38.140625 C 25.472656 38.304688 25.542969 38.460938 25.820312 38.890625 C 25.894531 39 25.964844 39.113281 26.042969 39.226562 C 26.097656 39.3125 26.152344 39.398438 26.207031 39.488281 C 26.117188 39.664062 26.027344 39.84375 25.933594 40.027344 C 25.519531 40.027344 25.519531 40.027344 25.265625 39.78125 C 25.179688 39.671875 25.09375 39.566406 25.007812 39.453125 C 24.917969 39.347656 24.832031 39.242188 24.742188 39.132812 C 24.558594 38.8125 24.558594 38.8125 24.585938 38.511719 C 24.699219 38.273438 24.699219 38.273438 24.972656 38.140625 Z M 24.972656 38.140625 "/>
<path style=" stroke:none;fill-rule:nonzero;fill:rgb(6.666667%,6.666667%,6.666667%);fill-opacity:1;" d="M 24.972656 32.882812 C 25.152344 32.972656 25.335938 33.0625 25.519531 33.152344 C 25.519531 33.742188 25.414062 33.886719 25.109375 34.367188 C 25.015625 34.660156 25.015625 34.660156 24.972656 34.90625 C 24.566406 34.839844 24.566406 34.839844 24.148438 34.769531 C 24.207031 34 24.539062 33.503906 24.972656 32.882812 Z M 24.972656 32.882812 "/>
<path style=" stroke:none;fill-rule:nonzero;fill:rgb(6.666667%,6.666667%,6.666667%);fill-opacity:1;" d="M 43.769531 22.507812 C 44.292969 22.9375 44.804688 23.371094 45.277344 23.855469 C 45.234375 23.988281 45.1875 24.121094 45.140625 24.257812 C 44.914062 24.304688 44.6875 24.347656 44.457031 24.394531 C 44.296875 24.21875 44.140625 24.046875 43.984375 23.871094 C 43.898438 23.773438 43.808594 23.675781 43.71875 23.578125 C 43.496094 23.316406 43.496094 23.316406 43.359375 23.046875 C 43.492188 22.867188 43.628906 22.691406 43.769531 22.507812 Z M 43.769531 22.507812 "/>
<path style=" stroke:none;fill-rule:nonzero;fill:rgb(5.882353%,5.882353%,5.882353%);fill-opacity:1;" d="M 12.347656 12.265625 C 12.613281 12.304688 12.613281 12.304688 12.898438 12.398438 C 13.035156 12.804688 13.035156 12.804688 12.867188 13.167969 C 12.789062 13.300781 12.710938 13.433594 12.632812 13.570312 C 12.554688 13.703125 12.476562 13.835938 12.398438 13.976562 C 12.335938 14.078125 12.273438 14.179688 12.210938 14.285156 C 11.871094 14.152344 11.871094 14.152344 11.527344 14.015625 C 11.59375 13.320312 11.960938 12.828125 12.347656 12.265625 Z M 12.347656 12.265625 "/>
<path style=" stroke:none;fill-rule:nonzero;fill:rgb(5.490196%,5.490196%,5.490196%);fill-opacity:1;" d="M 35.675781 34.5 C 36.339844 34.582031 36.875 34.867188 37.457031 35.175781 C 37.414062 35.398438 37.367188 35.621094 37.320312 35.847656 C 36.585938 35.777344 36.035156 35.515625 35.398438 35.175781 C 35.492188 34.953125 35.582031 34.730469 35.675781 34.5 Z M 35.675781 34.5 "/>
<path style=" stroke:none;fill-rule:nonzero;fill:rgb(5.882353%,5.882353%,5.882353%);fill-opacity:1;" d="M 42.808594 34.5 C 42.972656 34.78125 42.972656 34.78125 43.082031 35.039062 C 42.871094 35.15625 42.65625 35.265625 42.441406 35.378906 C 42.261719 35.472656 42.261719 35.472656 42.078125 35.566406 C 41.695312 35.722656 41.433594 35.742188 41.027344 35.714844 C 41.027344 35.492188 41.027344 35.269531 41.027344 35.039062 C 41.246094 34.921875 41.464844 34.808594 41.6875 34.695312 C 41.808594 34.632812 41.929688 34.566406 42.058594 34.5 C 42.398438 34.367188 42.398438 34.367188 42.808594 34.5 Z M 42.808594 34.5 "/>
<path style=" stroke:none;fill-rule:nonzero;fill:rgb(5.490196%,5.490196%,5.490196%);fill-opacity:1;" d="M 32.519531 12.667969 C 32.929688 12.804688 32.929688 12.804688 33.121094 13.097656 C 33.179688 13.21875 33.238281 13.335938 33.300781 13.460938 C 33.390625 13.640625 33.390625 13.640625 33.480469 13.820312 C 33.617188 14.152344 33.617188 14.152344 33.617188 14.554688 C 33.390625 14.601562 33.164062 14.644531 32.929688 14.691406 C 32.792969 14.449219 32.65625 14.207031 32.519531 13.964844 C 32.402344 13.765625 32.402344 13.765625 32.285156 13.558594 C 32.105469 13.207031 32.105469 13.207031 32.105469 12.9375 C 32.242188 12.847656 32.378906 12.761719 32.519531 12.667969 Z M 32.519531 12.667969 "/>
<path style=" stroke:none;fill-rule:nonzero;fill:rgb(4.705882%,4.705882%,5.098039%);fill-opacity:1;" d="M 34.578125 22.238281 C 34.710938 22.28125 34.847656 22.324219 34.988281 22.371094 C 35.035156 22.550781 35.078125 22.726562 35.125 22.910156 C 34.71875 23.265625 34.3125 23.621094 33.890625 23.988281 C 33.710938 23.898438 33.527344 23.8125 33.34375 23.71875 C 33.34375 23.316406 33.34375 23.316406 33.542969 23.074219 C 33.628906 22.992188 33.714844 22.910156 33.804688 22.828125 C 33.933594 22.703125 33.933594 22.703125 34.066406 22.578125 C 34.300781 22.371094 34.300781 22.371094 34.578125 22.238281 Z M 34.578125 22.238281 "/>
<path style=" stroke:none;fill-rule:nonzero;fill:rgb(5.882353%,5.882353%,5.882353%);fill-opacity:1;" d="M 37.457031 21.023438 C 37.503906 21.292969 37.546875 21.558594 37.59375 21.832031 C 37.351562 21.925781 37.109375 22.019531 36.867188 22.109375 C 36.730469 22.164062 36.597656 22.214844 36.457031 22.265625 C 36.085938 22.371094 36.085938 22.371094 35.675781 22.238281 C 35.582031 21.960938 35.582031 21.960938 35.539062 21.699219 C 35.707031 21.609375 35.878906 21.523438 36.050781 21.4375 C 36.148438 21.386719 36.242188 21.339844 36.339844 21.289062 C 36.714844 21.121094 37.046875 21.023438 37.457031 21.023438 Z M 37.457031 21.023438 "/>
<path style=" stroke:none;fill-rule:nonzero;fill:rgb(5.490196%,5.490196%,5.490196%);fill-opacity:1;" d="M 10.429688 20.214844 C 10.65625 20.214844 10.878906 20.214844 11.113281 20.214844 C 11.296875 20.867188 11.421875 21.417969 11.386719 22.101562 C 11.160156 22.148438 10.9375 22.191406 10.703125 22.238281 C 10.460938 21.53125 10.402344 20.960938 10.429688 20.214844 Z M 10.429688 20.214844 "/>
<path style=" stroke:none;fill-rule:nonzero;fill:rgb(3.137255%,3.137255%,3.529412%);fill-opacity:1;" d="M 10.289062 17.519531 C 10.5625 17.519531 10.835938 17.519531 11.113281 17.519531 C 11.113281 18.144531 11.113281 18.765625 11.113281 19.40625 C 10.84375 19.40625 10.570312 19.40625 10.289062 19.40625 C 10.289062 18.785156 10.289062 18.160156 10.289062 17.519531 Z M 10.289062 17.519531 "/>
<path style=" stroke:none;fill-rule:nonzero;fill:rgb(5.098039%,5.098039%,5.098039%);fill-opacity:1;" d="M 19.484375 7.414062 C 19.527344 7.636719 19.574219 7.855469 19.621094 8.085938 C 19.378906 8.175781 19.136719 8.265625 18.890625 8.355469 C 18.757812 8.40625 18.621094 8.457031 18.480469 8.507812 C 18.113281 8.625 18.113281 8.625 17.699219 8.625 C 17.65625 8.402344 17.609375 8.179688 17.5625 7.953125 C 18.855469 7.332031 18.855469 7.332031 19.484375 7.414062 Z M 19.484375 7.414062 "/>
<path style=" stroke:none;fill-rule:nonzero;fill:rgb(6.27451%,6.27451%,6.666667%);fill-opacity:1;" d="M 20.847656 6.996094 C 21.09375 6.996094 21.09375 6.996094 21.34375 7 C 21.589844 7 21.589844 7 21.84375 7.003906 C 21.96875 7.003906 22.097656 7.007812 22.226562 7.007812 C 22.226562 7.273438 22.226562 7.542969 22.226562 7.816406 C 21.59375 7.816406 20.960938 7.816406 20.308594 7.816406 C 20.308594 7.011719 20.308594 7.011719 20.847656 6.996094 Z M 20.847656 6.996094 "/>
<path style=" stroke:none;fill-rule:nonzero;fill:rgb(90.196079%,90.196079%,90.980393%);fill-opacity:1;" d="M 22.777344 19.675781 C 23.566406 19.914062 23.566406 19.914062 23.875 20.214844 C 23.925781 20.542969 23.925781 20.542969 23.875 20.890625 C 23.632812 21.132812 23.632812 21.132812 23.324219 21.292969 C 23.144531 21.292969 22.964844 21.292969 22.777344 21.292969 C 22.777344 20.761719 22.777344 20.226562 22.777344 19.675781 Z M 22.777344 19.675781 "/>
<path style=" stroke:none;fill-rule:nonzero;fill:rgb(90.980393%,90.980393%,91.764706%);fill-opacity:1;" d="M 21.953125 17.117188 C 21.953125 17.648438 21.953125 18.183594 21.953125 18.734375 C 21.148438 18.480469 21.148438 18.480469 20.992188 18.328125 C 20.949219 17.941406 20.949219 17.941406 20.992188 17.519531 C 21.332031 17.175781 21.464844 17.117188 21.953125 17.117188 Z M 21.953125 17.117188 "/>
<path style=" stroke:none;fill-rule:nonzero;fill:rgb(5.490196%,5.490196%,5.490196%);fill-opacity:1;" d="M 29.226562 35.847656 C 29.621094 35.832031 29.621094 35.832031 30.050781 35.847656 C 30.140625 35.9375 30.230469 36.027344 30.324219 36.117188 C 30.246094 36.734375 30.246094 36.734375 30.050781 36.925781 C 29.773438 36.933594 29.5 36.933594 29.226562 36.925781 C 29.070312 36.152344 29.070312 36.152344 29.226562 35.847656 Z M 29.226562 35.847656 "/>
<path style=" stroke:none;fill-rule:nonzero;fill:rgb(5.098039%,5.098039%,5.098039%);fill-opacity:1;" d="M 33.753906 18.058594 C 34.023438 18.058594 34.296875 18.058594 34.578125 18.058594 C 34.578125 18.371094 34.578125 18.683594 34.578125 19.003906 C 34.351562 19.003906 34.125 19.003906 33.890625 19.003906 C 33.84375 18.691406 33.800781 18.378906 33.753906 18.058594 Z M 33.753906 18.058594 "/>
<path style=" stroke:none;fill-rule:nonzero;fill:rgb(88.235295%,88.235295%,88.627452%);fill-opacity:1;" d="M 16.875 15.5 C 16.921875 15.632812 16.96875 15.765625 17.015625 15.902344 C 16.816406 16.199219 16.816406 16.199219 16.601562 16.441406 C 16.601562 16.351562 16.601562 16.265625 16.601562 16.171875 C 16.511719 16.171875 16.421875 16.171875 16.328125 16.171875 C 16.464844 15.769531 16.464844 15.769531 16.875 15.5 Z M 16.875 15.5 "/>
</g>
</svg>
